<svg width="24" height="24" viewBox="0 0 24 24" fill="none" xmlns="http://www.w3.org/2000/svg">
<path d="M5.5 9.74934V20.2493C5.5 20.3873 5.612 20.4993 5.75 20.4993H18.25C18.3163 20.4993 18.3799 20.473 18.4268 20.4261C18.4737 20.3792 18.5 20.3156 18.5 20.2493V9.74934C18.5 9.68304 18.4737 9.61945 18.4268 9.57256C18.3799 9.52568 18.3163 9.49934 18.25 9.49934H15.75C15.5511 9.49934 15.3603 9.42032 15.2197 9.27967C15.079 9.13902 15 8.94825 15 8.74934C15 8.55043 15.079 8.35966 15.2197 8.21901C15.3603 8.07836 15.5511 7.99934 15.75 7.99934H18.25C19.216 7.99934 20 8.78334 20 9.74934V20.2493C20 20.7135 19.8156 21.1586 19.4874 21.4868C19.1592 21.815 18.7141 21.9993 18.25 21.9993H5.75C5.28587 21.9993 4.84075 21.815 4.51256 21.4868C4.18437 21.1586 4 20.7135 4 20.2493V9.74934C4 8.78334 4.784 7.99934 5.75 7.99934H8.25C8.44891 7.99934 8.63968 8.07836 8.78033 8.21901C8.92098 8.35966 9 8.55043 9 8.74934C9 8.94825 8.92098 9.13902 8.78033 9.27967C8.63968 9.42032 8.44891 9.49934 8.25 9.49934H5.75C5.6837 9.49934 5.62011 9.52568 5.57322 9.57256C5.52634 9.61945 5.5 9.68304 5.5 9.74934ZM12.53 1.21934L15.78 4.46934C15.8787 4.56101 15.9509 4.67761 15.9889 4.80686C16.0269 4.93611 16.0294 5.07322 15.996 5.20375C15.9626 5.33427 15.8947 5.45338 15.7993 5.54852C15.7039 5.64366 15.5846 5.71131 15.454 5.74434C15.3236 5.77776 15.1867 5.77543 15.0575 5.73759C14.9283 5.69976 14.8117 5.62782 14.72 5.52934L12.75 3.55934V14.2493C12.75 14.4483 12.671 14.639 12.5303 14.7797C12.3897 14.9203 12.1989 14.9993 12 14.9993C11.8011 14.9993 11.6103 14.9203 11.4697 14.7797C11.329 14.639 11.25 14.4483 11.25 14.2493V3.55934L9.28 5.52934C9.13774 5.66175 8.94969 5.73385 8.75537 5.7305C8.56105 5.72714 8.3756 5.64858 8.238 5.51134C8.10076 5.37374 8.0222 5.18829 8.01884 4.99397C8.01549 4.79965 8.08759 4.6116 8.22 4.46934L11.47 1.21934C11.6106 1.07889 11.8012 1 12 1C12.1988 1 12.3894 1.07889 12.53 1.21934Z" fill="#407CFF" fill-opacity="0.45"/>
<path d="M5.5 9.74934V20.2493C5.5 20.3873 5.612 20.4993 5.75 20.4993H18.25C18.3163 20.4993 18.3799 20.473 18.4268 20.4261C18.4737 20.3792 18.5 20.3156 18.5 20.2493V9.74934C18.5 9.68304 18.4737 9.61945 18.4268 9.57256C18.3799 9.52568 18.3163 9.49934 18.25 9.49934H15.75C15.5511 9.49934 15.3603 9.42032 15.2197 9.27967C15.079 9.13902 15 8.94825 15 8.74934C15 8.55043 15.079 8.35966 15.2197 8.21901C15.3603 8.07836 15.5511 7.99934 15.75 7.99934H18.25C19.216 7.99934 20 8.78334 20 9.74934V20.2493C20 20.7135 19.8156 21.1586 19.4874 21.4868C19.1592 21.815 18.7141 21.9993 18.25 21.9993H5.75C5.28587 21.9993 4.84075 21.815 4.51256 21.4868C4.18437 21.1586 4 20.7135 4 20.2493V9.74934C4 8.78334 4.784 7.99934 5.75 7.99934H8.25C8.44891 7.99934 8.63968 8.07836 8.78033 8.21901C8.92098 8.35966 9 8.55043 9 8.74934C9 8.94825 8.92098 9.13902 8.78033 9.27967C8.63968 9.42032 8.44891 9.49934 8.25 9.49934H5.75C5.6837 9.49934 5.62011 9.52568 5.57322 9.57256C5.52634 9.61945 5.5 9.68304 5.5 9.74934ZM12.53 1.21934L15.78 4.46934C15.8787 4.56101 15.9509 4.67761 15.9889 4.80686C16.0269 4.93611 16.0294 5.07322 15.996 5.20375C15.9626 5.33427 15.8947 5.45338 15.7993 5.54852C15.7039 5.64366 15.5846 5.71131 15.454 5.74434C15.3236 5.77776 15.1867 5.77543 15.0575 5.73759C14.9283 5.69976 14.8117 5.62782 14.72 5.52934L12.75 3.55934V14.2493C12.75 14.4483 12.671 14.639 12.5303 14.7797C12.3897 14.9203 12.1989 14.9993 12 14.9993C11.8011 14.9993 11.6103 14.9203 11.4697 14.7797C11.329 14.639 11.25 14.4483 11.25 14.2493V3.55934L9.28 5.52934C9.13774 5.66175 8.94969 5.73385 8.75537 5.7305C8.56105 5.72714 8.3756 5.64858 8.238 5.51134C8.10076 5.37374 8.0222 5.18829 8.01884 4.99397C8.01549 4.79965 8.08759 4.6116 8.22 4.46934L11.47 1.21934C11.6106 1.07889 11.8012 1 12 1C12.1988 1 12.3894 1.07889 12.53 1.21934Z" fill="url(#paint0_linear_949_27114)"/>
<defs>
<linearGradient id="paint0_linear_949_27114" x1="12" y1="1" x2="12.7653" y2="26.2278" gradientUnits="userSpaceOnUse">
<stop stop-color="white"/>
<stop offset="1" stop-color="white" stop-opacity="0"/>
</linearGradient>
</defs>
</svg>
