<svg width="347" height="259" viewBox="0 0 347 259" fill="none" xmlns="http://www.w3.org/2000/svg">
<path d="M12.168 1.49763H345.67V258.502H0.665596V13C0.665596 6.64742 5.81538 1.49763 12.168 1.49763Z" fill="url(#paint0_linear_964_28751)"/>
<rect x="10.6656" y="11.4976" width="335.005" height="59.0047" rx="5.50237" fill="url(#paint1_linear_964_28751)"/>
<path d="M43.7898 37.0377C43.3189 36.2236 42.7523 34.6752 42.7523 31.9376V31.3709C42.7523 27.8352 39.9189 24.938 36.4311 24.9141H36.3832C35.5457 24.9151 34.7167 25.0811 33.9434 25.4025C33.1701 25.724 32.4677 26.1946 31.8762 26.7875C31.2848 27.3804 30.816 28.084 30.4965 28.8581C30.1769 29.6322 30.013 30.4617 30.0141 31.2991V31.9376C30.0141 34.6752 29.4474 36.2236 28.9765 37.0377C28.8626 37.2317 28.802 37.4523 28.8008 37.6773C28.7996 37.9022 28.8578 38.1235 28.9696 38.3187C29.0814 38.5139 29.2428 38.6762 29.4374 38.789C29.632 38.9018 29.853 38.9612 30.0779 38.9612H33.1906C33.1906 39.8079 33.527 40.6199 34.1257 41.2186C34.7244 41.8173 35.5365 42.1537 36.3832 42.1537C37.2299 42.1537 38.0419 41.8173 38.6406 41.2186C39.2393 40.6199 39.5757 39.8079 39.5757 38.9612H42.6884C42.9133 38.9626 43.1346 38.9042 43.3295 38.792C43.5245 38.6799 43.6861 38.5179 43.7978 38.3227C43.9086 38.1264 43.9662 37.9045 43.9648 37.6791C43.9634 37.4537 43.9031 37.2326 43.7898 37.0377V37.0377ZM36.3832 40.8767C35.8758 40.8746 35.3898 40.6721 35.031 40.3133C34.6722 39.9546 34.4698 39.4686 34.4677 38.9612H38.2987C38.2966 39.4686 38.0941 39.9546 37.7353 40.3133C37.3766 40.6721 36.8906 40.8746 36.3832 40.8767Z" fill="white"/>
<path d="M53.3874 39V26.6364H61.4286V28.5138H55.6271V31.8704H61.0121V33.7479H55.6271V37.1225H61.4769V39H53.3874ZM65.8024 33.5668V39H63.617V29.7273H65.7058V31.3029H65.8145C66.0278 30.7837 66.3678 30.3712 66.8347 30.0653C67.3056 29.7595 67.8871 29.6065 68.5794 29.6065C69.2193 29.6065 69.7767 29.7434 70.2516 30.017C70.7305 30.2907 71.1008 30.6871 71.3624 31.2063C71.628 31.7255 71.7588 32.3554 71.7548 33.0959V39H69.5694V33.4339C69.5694 32.8142 69.4084 32.3292 69.0865 31.979C68.7685 31.6289 68.3278 31.4538 67.7644 31.4538C67.382 31.4538 67.042 31.5384 66.7441 31.7074C66.4503 31.8724 66.2189 32.1119 66.0499 32.4258C65.8849 32.7397 65.8024 33.12 65.8024 33.5668ZM78.0091 42.6705C77.2243 42.6705 76.5501 42.5638 75.9867 42.3505C75.4232 42.1412 74.9705 41.8595 74.6284 41.5053C74.2863 41.1512 74.0488 40.7588 73.916 40.3281L75.8841 39.8512C75.9726 40.0323 76.1014 40.2114 76.2704 40.3885C76.4395 40.5696 76.6668 40.7185 76.9526 40.8352C77.2424 40.956 77.6066 41.0163 78.0453 41.0163C78.6651 41.0163 79.1782 40.8654 79.5847 40.5636C79.9912 40.2657 80.1944 39.7747 80.1944 39.0906V37.3338H80.0858C79.9731 37.5592 79.8081 37.7906 79.5907 38.0281C79.3774 38.2655 79.0937 38.4647 78.7395 38.6257C78.3894 38.7867 77.9487 38.8672 77.4174 38.8672C76.7051 38.8672 76.0591 38.7002 75.4796 38.3661C74.9041 38.0281 74.4453 37.525 74.1032 36.8569C73.7651 36.1848 73.5961 35.3436 73.5961 34.3335C73.5961 33.3152 73.7651 32.456 74.1032 31.7557C74.4453 31.0514 74.9061 30.5181 75.4856 30.1559C76.0652 29.7897 76.7111 29.6065 77.4235 29.6065C77.9668 29.6065 78.4135 29.6991 78.7637 29.8842C79.1178 30.0653 79.3996 30.2847 79.6088 30.5423C79.8181 30.7958 79.9771 31.0353 80.0858 31.2607H80.2065V29.7273H82.3617V39.1509C82.3617 39.9438 82.1725 40.5998 81.7942 41.119C81.4159 41.6381 80.8987 42.0265 80.2427 42.2841C79.5867 42.5417 78.8422 42.6705 78.0091 42.6705ZM78.0272 37.1527C78.49 37.1527 78.8844 37.04 79.2104 36.8146C79.5364 36.5893 79.7839 36.2653 79.9529 35.8427C80.122 35.4201 80.2065 34.913 80.2065 34.3214C80.2065 33.7378 80.122 33.2267 79.9529 32.788C79.7879 32.3493 79.5424 32.0092 79.2164 31.7678C78.8945 31.5223 78.498 31.3995 78.0272 31.3995C77.5402 31.3995 77.1337 31.5263 76.8077 31.7798C76.4817 32.0334 76.2362 32.3815 76.0712 32.8242C75.9062 33.2629 75.8237 33.762 75.8237 34.3214C75.8237 34.8888 75.9062 35.3859 76.0712 35.8125C76.2402 36.2351 76.4877 36.5651 76.8137 36.8026C77.1438 37.036 77.5482 37.1527 78.0272 37.1527ZM87.2697 39.1871C86.6821 39.1871 86.1529 39.0825 85.682 38.8732C85.2151 38.6599 84.8449 38.346 84.5712 37.9315C84.3016 37.5169 84.1667 37.0058 84.1667 36.3981C84.1667 35.8749 84.2633 35.4422 84.4565 35.1001C84.6497 34.758 84.9133 34.4844 85.2473 34.2791C85.5814 34.0739 85.9577 33.9189 86.3762 33.8143C86.7988 33.7056 87.2355 33.6271 87.6863 33.5788C88.2296 33.5225 88.6703 33.4722 89.0083 33.4279C89.3464 33.3796 89.5919 33.3072 89.7449 33.2106C89.9018 33.11 89.9803 32.955 89.9803 32.7457V32.7095C89.9803 32.2547 89.8455 31.9026 89.5758 31.6531C89.3062 31.4035 88.9178 31.2788 88.4107 31.2788C87.8754 31.2788 87.4508 31.3955 87.1369 31.6289C86.827 31.8623 86.6177 32.138 86.5091 32.456L84.4686 32.1662C84.6296 31.6027 84.8952 31.1319 85.2654 30.7536C85.6357 30.3712 86.0885 30.0855 86.6238 29.8963C87.159 29.7031 87.7507 29.6065 88.3986 29.6065C88.8453 29.6065 89.2901 29.6589 89.7328 29.7635C90.1755 29.8681 90.58 30.0412 90.9462 30.2827C91.3124 30.5201 91.6062 30.8441 91.8276 31.2546C92.053 31.6651 92.1657 32.1783 92.1657 32.794V39H90.0648V37.7262H89.9924C89.8596 37.9838 89.6724 38.2253 89.4309 38.4506C89.1935 38.672 88.8936 38.8511 88.5314 38.9879C88.1732 39.1207 87.7527 39.1871 87.2697 39.1871ZM87.8372 37.5813C88.2759 37.5813 88.6562 37.4948 88.9782 37.3217C89.3001 37.1446 89.5476 36.9112 89.7207 36.6214C89.8978 36.3317 89.9863 36.0157 89.9863 35.6737V34.581C89.9179 34.6373 89.8012 34.6896 89.6362 34.7379C89.4752 34.7862 89.2941 34.8285 89.0929 34.8647C88.8916 34.9009 88.6924 34.9331 88.4952 34.9613C88.298 34.9895 88.127 35.0136 87.9821 35.0337C87.6561 35.078 87.3643 35.1504 87.1067 35.2511C86.8491 35.3517 86.6459 35.4925 86.497 35.6737C86.3481 35.8507 86.2736 36.0801 86.2736 36.3619C86.2736 36.7643 86.4205 37.0682 86.7143 37.2734C87.0081 37.4787 87.3824 37.5813 87.8372 37.5813ZM98.3958 42.6705C97.611 42.6705 96.9368 42.5638 96.3734 42.3505C95.81 42.1412 95.3572 41.8595 95.0151 41.5053C94.673 41.1512 94.4355 40.7588 94.3027 40.3281L96.2708 39.8512C96.3593 40.0323 96.4881 40.2114 96.6571 40.3885C96.8262 40.5696 97.0536 40.7185 97.3393 40.8352C97.6291 40.956 97.9933 41.0163 98.432 41.0163C99.0518 41.0163 99.5649 40.8654 99.9714 40.5636C100.378 40.2657 100.581 39.7747 100.581 39.0906V37.3338H100.472C100.36 37.5592 100.195 37.7906 99.9775 38.0281C99.7641 38.2655 99.4804 38.4647 99.1262 38.6257C98.7761 38.7867 98.3354 38.8672 97.8042 38.8672C97.0918 38.8672 96.4458 38.7002 95.8663 38.3661C95.2908 38.0281 94.832 37.525 94.4899 36.8569C94.1518 36.1848 93.9828 35.3436 93.9828 34.3335C93.9828 33.3152 94.1518 32.456 94.4899 31.7557C94.832 31.0514 95.2928 30.5181 95.8723 30.1559C96.4519 29.7897 97.0978 29.6065 97.8102 29.6065C98.3535 29.6065 98.8002 29.6991 99.1504 29.8842C99.5046 30.0653 99.7863 30.2847 99.9956 30.5423C100.205 30.7958 100.364 31.0353 100.472 31.2607H100.593V29.7273H102.748V39.1509C102.748 39.9438 102.559 40.5998 102.181 41.119C101.803 41.6381 101.285 42.0265 100.629 42.2841C99.9734 42.5417 99.2289 42.6705 98.3958 42.6705ZM98.4139 37.1527C98.8767 37.1527 99.2711 37.04 99.5971 36.8146C99.9231 36.5893 100.171 36.2653 100.34 35.8427C100.509 35.4201 100.593 34.913 100.593 34.3214C100.593 33.7378 100.509 33.2267 100.34 32.788C100.175 32.3493 99.9292 32.0092 99.6032 31.7678C99.2812 31.5223 98.8848 31.3995 98.4139 31.3995C97.9269 31.3995 97.5204 31.5263 97.1944 31.7798C96.8684 32.0334 96.6229 32.3815 96.4579 32.8242C96.2929 33.2629 96.2104 33.762 96.2104 34.3214C96.2104 34.8888 96.2929 35.3859 96.4579 35.8125C96.627 36.2351 96.8745 36.5651 97.2005 36.8026C97.5305 37.036 97.935 37.1527 98.4139 37.1527ZM109.093 39.1811C108.164 39.1811 107.361 38.9879 106.684 38.6016C106.012 38.2112 105.495 37.6598 105.133 36.9474C104.771 36.2311 104.59 35.3879 104.59 34.418C104.59 33.4641 104.771 32.627 105.133 31.9066C105.499 31.1822 106.01 30.6187 106.666 30.2163C107.322 29.8098 108.093 29.6065 108.979 29.6065C109.55 29.6065 110.089 29.6991 110.596 29.8842C111.108 30.0653 111.558 30.3471 111.949 30.7294C112.343 31.1117 112.653 31.5987 112.878 32.1903C113.104 32.7779 113.216 33.4782 113.216 34.2912V34.9613H105.616V33.4883H111.122C111.118 33.0697 111.027 32.6974 110.85 32.3714C110.673 32.0414 110.425 31.7818 110.107 31.5927C109.794 31.4035 109.427 31.3089 109.009 31.3089C108.562 31.3089 108.17 31.4176 107.831 31.6349C107.493 31.8482 107.23 32.13 107.041 32.4801C106.856 32.8262 106.761 33.2066 106.757 33.6211V34.907C106.757 35.4463 106.856 35.9091 107.053 36.2955C107.25 36.6778 107.526 36.9716 107.88 37.1768C108.234 37.3781 108.648 37.4787 109.123 37.4787C109.441 37.4787 109.729 37.4344 109.987 37.3459C110.244 37.2533 110.468 37.1185 110.657 36.9414C110.846 36.7643 110.989 36.545 111.085 36.2834L113.126 36.5128C112.997 37.0521 112.752 37.523 112.389 37.9254C112.031 38.3239 111.572 38.6338 111.013 38.8551C110.454 39.0724 109.814 39.1811 109.093 39.1811Z" fill="white"/>
<rect x="52.168" y="48" width="277" height="13" rx="6.5" fill="url(#paint2_linear_964_28751)"/>
<rect x="10.6656" y="11.4976" width="335.005" height="59.0047" rx="5.50237" stroke="url(#paint3_diamond_964_28751)" stroke-width="0.995255"/>
<g opacity="0.44">
<rect x="10.6656" y="80.4976" width="335.005" height="59.4369" rx="5.50237" fill="url(#paint4_linear_964_28751)"/>
<g clip-path="url(#clip0_964_28751)">
<path fill-rule="evenodd" clip-rule="evenodd" d="M34.8994 92.9297C32.2872 92.9297 29.9332 94.7494 29.9332 97.1864V100.407C29.9332 100.862 29.7984 101.307 29.5459 101.686L27.9851 104.026C27.8771 104.188 27.8152 104.377 27.8059 104.572C27.7966 104.766 27.8404 104.96 27.9325 105.132C28.0247 105.304 28.1617 105.447 28.329 105.547C28.4963 105.647 28.6876 105.7 28.8825 105.7H32.4163C32.4163 106.026 32.4805 106.349 32.6053 106.65C32.7301 106.951 32.913 107.225 33.1436 107.456C33.3741 107.686 33.6479 107.869 33.9491 107.994C34.2504 108.119 34.5733 108.183 34.8994 108.183C35.2255 108.183 35.5483 108.119 35.8496 107.994C36.1509 107.869 36.4246 107.686 36.6552 107.456C36.8857 107.225 37.0687 106.951 37.1934 106.65C37.3182 106.349 37.3824 106.026 37.3824 105.7H40.9169C41.1119 105.7 41.3031 105.647 41.4703 105.547C41.6375 105.447 41.7744 105.303 41.8664 105.131C41.9584 104.959 42.002 104.766 41.9926 104.571C41.9832 104.376 41.9211 104.188 41.813 104.025L40.2522 101.686C39.9999 101.307 39.8653 100.862 39.8655 100.407V97.1864C39.8655 94.7494 37.5109 92.9297 34.8994 92.9297ZM30.9974 97.1864C30.9974 95.5092 32.688 93.9939 34.8994 93.9939C37.1107 93.9939 38.8014 95.5092 38.8014 97.1864V100.407C38.8014 101.072 38.9986 101.722 39.3675 102.276L40.9276 104.616C40.929 104.619 40.9298 104.621 40.9297 104.624L40.929 104.628L40.9262 104.632L40.9219 104.635L40.9169 104.636H28.8818L28.8769 104.635L28.8726 104.632L28.8698 104.628L28.869 104.623L28.8712 104.616L30.432 102.276C30.8008 101.722 30.9976 101.072 30.9974 100.407V97.1864ZM36.3183 105.7H33.4805C33.4805 106.076 33.63 106.437 33.8961 106.703C34.1622 106.969 34.5231 107.119 34.8994 107.119C35.2757 107.119 35.6366 106.969 35.9027 106.703C36.1688 106.437 36.3183 106.076 36.3183 105.7Z" fill="white"/>
</g>
<path d="M53.2042 108.219L49.7148 95.8551H52.1236L54.3512 104.941H54.4659L56.8445 95.8551H59.0359L61.4205 104.947H61.5291L63.7567 95.8551H66.1655L62.6761 108.219H60.4666L57.9915 99.5437H57.8949L55.4137 108.219H53.2042ZM69.3439 108.406C68.7563 108.406 68.2271 108.301 67.7562 108.092C67.2894 107.879 66.9191 107.565 66.6454 107.15C66.3758 106.736 66.2409 106.225 66.2409 105.617C66.2409 105.094 66.3375 104.661 66.5307 104.319C66.7239 103.977 66.9875 103.703 67.3216 103.498C67.6556 103.293 68.0319 103.138 68.4505 103.033C68.873 102.924 69.3097 102.846 69.7605 102.798C70.3038 102.741 70.7445 102.691 71.0826 102.647C71.4206 102.598 71.6661 102.526 71.8191 102.429C71.976 102.329 72.0545 102.174 72.0545 101.964V101.928C72.0545 101.473 71.9197 101.121 71.65 100.872C71.3804 100.622 70.992 100.498 70.4849 100.498C69.9496 100.498 69.525 100.614 69.2111 100.848C68.9012 101.081 68.6919 101.357 68.5833 101.675L66.5428 101.385C66.7038 100.821 66.9694 100.351 67.3397 99.9723C67.7099 99.59 68.1627 99.3042 68.698 99.1151C69.2333 98.9219 69.8249 98.8253 70.4728 98.8253C70.9196 98.8253 71.3643 98.8776 71.807 98.9822C72.2497 99.0869 72.6542 99.2599 73.0204 99.5014C73.3867 99.7389 73.6805 100.063 73.9018 100.473C74.1272 100.884 74.2399 101.397 74.2399 102.013V108.219H72.139V106.945H72.0666C71.9338 107.203 71.7466 107.444 71.5051 107.669C71.2677 107.891 70.9679 108.07 70.6056 108.207C70.2475 108.339 69.8269 108.406 69.3439 108.406ZM69.9114 106.8C70.3501 106.8 70.7304 106.714 71.0524 106.54C71.3743 106.363 71.6219 106.13 71.7949 105.84C71.972 105.55 72.0605 105.234 72.0605 104.892V103.8C71.9921 103.856 71.8754 103.908 71.7104 103.957C71.5494 104.005 71.3683 104.047 71.1671 104.083C70.9658 104.12 70.7666 104.152 70.5694 104.18C70.3722 104.208 70.2012 104.232 70.0563 104.252C69.7303 104.297 69.4385 104.369 69.1809 104.47C68.9234 104.57 68.7201 104.711 68.5712 104.892C68.4223 105.069 68.3478 105.299 68.3478 105.581C68.3478 105.983 68.4947 106.287 68.7885 106.492C69.0823 106.697 69.4566 106.8 69.9114 106.8ZM81.0676 98.946V100.636H75.737V98.946H81.0676ZM77.0531 96.7244H79.2385V105.43C79.2385 105.723 79.2827 105.949 79.3713 106.106C79.4638 106.259 79.5846 106.363 79.7335 106.42C79.8824 106.476 80.0474 106.504 80.2285 106.504C80.3654 106.504 80.4901 106.494 80.6028 106.474C80.7195 106.454 80.8081 106.436 80.8684 106.42L81.2367 108.128C81.12 108.168 80.9529 108.213 80.7356 108.261C80.5223 108.309 80.2607 108.337 79.9508 108.346C79.4035 108.362 78.9105 108.279 78.4718 108.098C78.0331 107.913 77.685 107.627 77.4274 107.241C77.1738 106.854 77.0491 106.371 77.0531 105.792V96.7244ZM86.8405 108.4C85.9148 108.4 85.1199 108.197 84.4559 107.79C83.7958 107.384 83.2867 106.822 82.9285 106.106C82.5744 105.385 82.3973 104.556 82.3973 103.619C82.3973 102.677 82.5784 101.846 82.9406 101.125C83.3028 100.401 83.814 99.8375 84.474 99.435C85.1381 99.0285 85.9229 98.8253 86.8284 98.8253C87.581 98.8253 88.2471 98.9641 88.8266 99.2418C89.4102 99.5155 89.875 99.9039 90.2211 100.407C90.5673 100.906 90.7645 101.49 90.8128 102.158H88.724C88.6395 101.711 88.4382 101.339 88.1203 101.041C87.8064 100.739 87.3858 100.588 86.8586 100.588C86.4118 100.588 86.0194 100.709 85.6814 100.95C85.3433 101.188 85.0797 101.53 84.8905 101.977C84.7054 102.423 84.6128 102.959 84.6128 103.582C84.6128 104.214 84.7054 104.758 84.8905 105.212C85.0757 105.663 85.3353 106.011 85.6693 106.257C86.0074 106.498 86.4038 106.619 86.8586 106.619C87.1805 106.619 87.4683 106.559 87.7219 106.438C87.9794 106.313 88.1948 106.134 88.3678 105.901C88.5409 105.667 88.6596 105.383 88.724 105.049H90.8128C90.7604 105.705 90.5673 106.287 90.2332 106.794C89.8992 107.297 89.4444 107.692 88.8689 107.977C88.2934 108.259 87.6172 108.4 86.8405 108.4ZM94.7926 102.786V108.219H92.6072V95.8551H94.7443V100.522H94.853C95.0703 99.9985 95.4064 99.5859 95.8612 99.2841C96.32 98.9782 96.9035 98.8253 97.6119 98.8253C98.2558 98.8253 98.8172 98.9601 99.2962 99.2298C99.7751 99.4994 100.145 99.8938 100.407 100.413C100.673 100.932 100.805 101.566 100.805 102.315V108.219H98.62V102.653C98.62 102.029 98.459 101.544 98.1371 101.198C97.8191 100.848 97.3724 100.673 96.7969 100.673C96.4105 100.673 96.0644 100.757 95.7585 100.926C95.4567 101.091 95.2192 101.331 95.0462 101.645C94.8771 101.958 94.7926 102.339 94.7926 102.786Z" fill="white"/>
<rect x="49.3828" y="117.219" width="277" height="13" rx="6.5" fill="url(#paint5_linear_964_28751)"/>
<rect x="10.6656" y="80.4976" width="335.005" height="59.4369" rx="5.50237" stroke="url(#paint6_diamond_964_28751)" stroke-width="0.995255"/>
</g>
<g opacity="0.44">
<rect x="10.6656" y="149.927" width="335.005" height="59.4369" rx="5.50237" fill="url(#paint7_linear_964_28751)"/>
<path d="M29.9683 163.955C29.8722 163.855 29.7405 163.796 29.6015 163.791C29.4624 163.786 29.3271 163.836 29.2244 163.93C29.1218 164.024 29.0601 164.155 29.0524 164.294C29.0448 164.432 29.0918 164.569 29.1835 164.673L30.3009 165.904C29.8337 166.715 29.5883 167.635 29.5892 168.571V169.103C29.5892 171.384 29.117 172.675 28.7246 173.353C28.6297 173.515 28.5792 173.699 28.5781 173.886C28.5771 174.074 28.6257 174.258 28.7188 174.421C28.812 174.583 28.9464 174.719 29.1086 174.813C29.2708 174.907 29.455 174.956 29.6424 174.956H32.2363C32.2363 175.662 32.5166 176.338 33.0156 176.837C33.5145 177.336 34.1912 177.616 34.8968 177.616C35.6024 177.616 36.2791 177.336 36.778 176.837C37.2769 176.338 37.5572 175.662 37.5572 174.956H38.5283L39.8252 176.379C39.8751 176.434 39.9357 176.477 40.0033 176.507C40.0708 176.537 40.1438 176.552 40.2177 176.552C40.3504 176.551 40.4781 176.501 40.5768 176.413C40.6291 176.366 40.6716 176.309 40.7016 176.246C40.7317 176.183 40.7488 176.114 40.7519 176.044C40.755 175.974 40.744 175.904 40.7197 175.838C40.6953 175.772 40.6581 175.712 40.6101 175.661L29.9683 163.955ZM34.8968 176.552C34.474 176.551 34.069 176.382 33.77 176.083C33.471 175.784 33.3023 175.379 33.3005 174.956H36.493C36.4913 175.379 36.3226 175.784 36.0236 176.083C35.7246 176.382 35.3196 176.551 34.8968 176.552ZM29.6424 173.892C30.1013 173.1 30.6534 171.624 30.6534 169.103V168.571C30.6514 167.938 30.7923 167.313 31.0658 166.742L37.5639 173.892H29.6424ZM32.0767 164.673C32.0063 164.551 31.987 164.405 32.0231 164.268C32.0592 164.131 32.1478 164.014 32.2696 163.942C33.0831 163.483 34.0025 163.244 34.9367 163.25C37.8432 163.27 40.2044 165.684 40.2044 168.631V169.103C40.2044 170.56 40.3906 171.77 40.7631 172.721C40.7889 172.786 40.8017 172.856 40.8007 172.926C40.7996 172.996 40.7848 173.065 40.757 173.129C40.7292 173.194 40.689 173.252 40.6386 173.3C40.5883 173.349 40.5289 173.387 40.4638 173.413C40.4016 173.434 40.3365 173.445 40.2709 173.446C40.1639 173.447 40.0591 173.415 39.971 173.355C39.8829 173.294 39.8157 173.207 39.7787 173.107C39.353 172.036 39.1402 170.693 39.1402 169.103V168.631C39.1402 166.27 37.2513 164.334 34.93 164.314C34.1844 164.308 33.4502 164.498 32.8017 164.866C32.6799 164.936 32.5353 164.956 32.3994 164.919C32.2636 164.883 32.1476 164.795 32.0767 164.673V164.673Z" fill="white"/>
<path d="M52.842 165.285V177.648H50.6023V165.285H52.842ZM59.2034 181.319C58.4186 181.319 57.7445 181.212 57.181 180.999C56.6176 180.79 56.1648 180.508 55.8227 180.154C55.4806 179.8 55.2432 179.407 55.1104 178.977L57.0784 178.5C57.1669 178.681 57.2957 178.86 57.4648 179.037C57.6338 179.218 57.8612 179.367 58.1469 179.484C58.4367 179.604 58.8009 179.665 59.2396 179.665C59.8594 179.665 60.3725 179.514 60.779 179.212C61.1855 178.914 61.3888 178.423 61.3888 177.739V175.982H61.2801C61.1674 176.208 61.0024 176.439 60.7851 176.676C60.5718 176.914 60.288 177.113 59.9339 177.274C59.5837 177.435 59.143 177.516 58.6118 177.516C57.8994 177.516 57.2535 177.349 56.6739 177.015C56.0984 176.676 55.6396 176.173 55.2975 175.505C54.9594 174.833 54.7904 173.992 54.7904 172.982C54.7904 171.964 54.9594 171.104 55.2975 170.404C55.6396 169.7 56.1004 169.167 56.68 168.804C57.2595 168.438 57.9055 168.255 58.6178 168.255C59.1611 168.255 59.6079 168.348 59.958 168.533C60.3122 168.714 60.5939 168.933 60.8032 169.191C61.0125 169.444 61.1714 169.684 61.2801 169.909H61.4008V168.376H63.556V177.799C63.556 178.592 63.3669 179.248 62.9885 179.767C62.6102 180.287 62.0931 180.675 61.4371 180.933C60.781 181.19 60.0365 181.319 59.2034 181.319ZM59.2215 175.801C59.6843 175.801 60.0787 175.688 60.4047 175.463C60.7307 175.238 60.9782 174.914 61.1473 174.491C61.3163 174.069 61.4008 173.561 61.4008 172.97C61.4008 172.386 61.3163 171.875 61.1473 171.436C60.9823 170.998 60.7368 170.658 60.4108 170.416C60.0888 170.171 59.6924 170.048 59.2215 170.048C58.7345 170.048 58.328 170.175 58.002 170.428C57.676 170.682 57.4305 171.03 57.2655 171.473C57.1005 171.911 57.018 172.41 57.018 172.97C57.018 173.537 57.1005 174.034 57.2655 174.461C57.4346 174.884 57.6821 175.214 58.0081 175.451C58.3381 175.684 58.7426 175.801 59.2215 175.801ZM67.9811 172.215V177.648H65.7957V168.376H67.8845V169.951H67.9932C68.2065 169.432 68.5465 169.02 69.0134 168.714C69.4843 168.408 70.0658 168.255 70.7581 168.255C71.398 168.255 71.9554 168.392 72.4303 168.665C72.9092 168.939 73.2795 169.336 73.5411 169.855C73.8067 170.374 73.9375 171.004 73.9335 171.744V177.648H71.7481V172.082C71.7481 171.463 71.5872 170.978 71.2652 170.627C70.9472 170.277 70.5065 170.102 69.9431 170.102C69.5608 170.102 69.2207 170.187 68.9229 170.356C68.6291 170.521 68.3976 170.76 68.2286 171.074C68.0636 171.388 67.9811 171.768 67.9811 172.215ZM80.1998 177.83C79.2943 177.83 78.5095 177.63 77.8454 177.232C77.1814 176.833 76.6662 176.276 76.3 175.56C75.9378 174.843 75.7567 174.006 75.7567 173.048C75.7567 172.09 75.9378 171.251 76.3 170.531C76.6662 169.81 77.1814 169.251 77.8454 168.853C78.5095 168.454 79.2943 168.255 80.1998 168.255C81.1054 168.255 81.8902 168.454 82.5542 168.853C83.2183 169.251 83.7314 169.81 84.0937 170.531C84.4599 171.251 84.643 172.09 84.643 173.048C84.643 174.006 84.4599 174.843 84.0937 175.56C83.7314 176.276 83.2183 176.833 82.5542 177.232C81.8902 177.63 81.1054 177.83 80.1998 177.83ZM80.2119 176.079C80.7029 176.079 81.1134 175.944 81.4434 175.674C81.7735 175.401 82.019 175.034 82.18 174.576C82.345 174.117 82.4275 173.606 82.4275 173.042C82.4275 172.475 82.345 171.962 82.18 171.503C82.019 171.04 81.7735 170.672 81.4434 170.398C81.1134 170.124 80.7029 169.988 80.2119 169.988C79.7088 169.988 79.2903 170.124 78.9562 170.398C78.6262 170.672 78.3787 171.04 78.2137 171.503C78.0527 171.962 77.9722 172.475 77.9722 173.042C77.9722 173.606 78.0527 174.117 78.2137 174.576C78.3787 175.034 78.6262 175.401 78.9562 175.674C79.2903 175.944 79.7088 176.079 80.2119 176.079ZM86.4979 177.648V168.376H88.6168V169.921H88.7134C88.8825 169.386 89.1722 168.973 89.5827 168.684C89.9973 168.39 90.4702 168.243 91.0014 168.243C91.1222 168.243 91.257 168.249 91.4059 168.261C91.5588 168.269 91.6856 168.283 91.7862 168.303V170.314C91.6937 170.281 91.5468 170.253 91.3455 170.229C91.1483 170.201 90.9571 170.187 90.772 170.187C90.3736 170.187 90.0154 170.273 89.6974 170.446C89.3835 170.615 89.136 170.851 88.9549 171.153C88.7738 171.455 88.6832 171.803 88.6832 172.197V177.648H86.4979ZM96.9614 177.83C96.0317 177.83 95.2288 177.636 94.5526 177.25C93.8805 176.86 93.3634 176.308 93.0012 175.596C92.6389 174.879 92.4578 174.036 92.4578 173.066C92.4578 172.113 92.6389 171.275 93.0012 170.555C93.3674 169.831 93.8785 169.267 94.5345 168.865C95.1905 168.458 95.9613 168.255 96.8467 168.255C97.4182 168.255 97.9575 168.348 98.4646 168.533C98.9757 168.714 99.4265 168.996 99.8169 169.378C100.211 169.76 100.521 170.247 100.747 170.839C100.972 171.426 101.085 172.127 101.085 172.94V173.61H93.4841V172.137H98.9898C98.9858 171.718 98.8952 171.346 98.7181 171.02C98.541 170.69 98.2935 170.43 97.9756 170.241C97.6617 170.052 97.2954 169.957 96.8769 169.957C96.4301 169.957 96.0377 170.066 95.6997 170.283C95.3616 170.497 95.098 170.778 94.9088 171.129C94.7237 171.475 94.6291 171.855 94.6251 172.27V173.555C94.6251 174.095 94.7237 174.558 94.9209 174.944C95.1181 175.326 95.3938 175.62 95.748 175.825C96.1021 176.027 96.5167 176.127 96.9916 176.127C97.3095 176.127 97.5973 176.083 97.8548 175.994C98.1124 175.902 98.3358 175.767 98.5249 175.59C98.7141 175.413 98.857 175.193 98.9536 174.932L100.994 175.161C100.865 175.701 100.62 176.171 100.258 176.574C99.8994 176.972 99.4405 177.282 98.8811 177.504C98.3217 177.721 97.6818 177.83 96.9614 177.83Z" fill="white"/>
<rect x="49.3828" y="186.648" width="277" height="13" rx="6.5" fill="url(#paint8_linear_964_28751)"/>
<rect x="10.6656" y="149.927" width="335.005" height="59.4369" rx="5.50237" stroke="url(#paint9_diamond_964_28751)" stroke-width="0.995255"/>
</g>
<g opacity="0.44">
<rect x="10.6656" y="219.365" width="335.005" height="59.4369" rx="5.50237" fill="url(#paint10_linear_964_28751)"/>
<path d="M41.2579 244.372L37.0278 237.322V233.744H37.5599C37.701 233.744 37.8364 233.688 37.9361 233.588C38.0359 233.488 38.092 233.353 38.092 233.212C38.092 233.071 38.0359 232.935 37.9361 232.836C37.8364 232.736 37.701 232.68 37.5599 232.68H32.239C32.0979 232.68 31.9626 232.736 31.8628 232.836C31.763 232.935 31.7069 233.071 31.7069 233.212C31.7069 233.353 31.763 233.488 31.8628 233.588C31.9626 233.688 32.0979 233.744 32.239 233.744H32.7711V237.322L30.0974 241.772C30.0974 241.778 30.0907 241.785 30.0907 241.792L28.541 244.372C28.4447 244.534 28.3929 244.718 28.3907 244.905C28.3885 245.093 28.4362 245.278 28.5287 245.442C28.6213 245.605 28.7555 245.742 28.9177 245.836C29.0799 245.931 29.2643 245.981 29.4522 245.982H40.3467C40.5346 245.981 40.719 245.931 40.8812 245.836C41.0434 245.742 41.1776 245.605 41.2702 245.442C41.3628 245.278 41.4104 245.093 41.4082 244.905C41.4061 244.718 41.3542 244.534 41.2579 244.372ZM33.6823 237.868C33.7819 237.703 33.8348 237.514 33.8353 237.322V233.744H35.9636V237.322C35.9641 237.514 36.017 237.703 36.1166 237.868L38.6972 242.177C37.8259 242.65 36.6088 242.517 35.1389 241.778C34.1878 241.306 32.964 240.88 31.7934 241.02L33.6823 237.868ZM29.4522 244.918L30.9487 242.43C31.8266 241.852 33.1037 241.958 34.66 242.736C35.8107 243.308 36.7551 243.521 37.5333 243.521C38.1333 243.53 38.7251 243.381 39.2493 243.089L40.3467 244.918H29.4522Z" fill="white"/>
<path d="M61.185 238.894H58.9272C58.8628 238.524 58.7441 238.196 58.571 237.91C58.398 237.62 58.1826 237.375 57.9251 237.173C57.6675 236.972 57.3737 236.821 57.0437 236.721C56.7177 236.616 56.3655 236.564 55.9872 236.564C55.3151 236.564 54.7195 236.733 54.2003 237.071C53.6811 237.405 53.2746 237.896 52.9808 238.544C52.687 239.188 52.5401 239.974 52.5401 240.904C52.5401 241.85 52.687 242.647 52.9808 243.295C53.2786 243.939 53.6851 244.426 54.2003 244.756C54.7195 245.082 55.3131 245.245 55.9812 245.245C56.3514 245.245 56.6976 245.196 57.0195 245.1C57.3455 244.999 57.6373 244.852 57.8949 244.659C58.1565 244.466 58.3758 244.228 58.5529 243.947C58.734 243.665 58.8588 243.343 58.9272 242.981L61.185 242.993C61.1005 243.58 60.9174 244.132 60.6357 244.647C60.358 245.162 59.9937 245.617 59.543 246.011C59.0922 246.402 58.565 246.708 57.9613 246.929C57.3576 247.146 56.6875 247.255 55.951 247.255C54.8643 247.255 53.8944 247.003 53.0412 246.5C52.188 245.997 51.5159 245.271 51.0249 244.321C50.5339 243.371 50.2884 242.232 50.2884 240.904C50.2884 239.572 50.5359 238.433 51.0309 237.487C51.5259 236.537 52.2 235.811 53.0533 235.308C53.9065 234.805 54.8724 234.553 55.951 234.553C56.6392 234.553 57.2791 234.65 57.8707 234.843C58.4624 235.036 58.9896 235.32 59.4524 235.694C59.9152 236.065 60.2956 236.519 60.5934 237.059C60.8952 237.594 61.0924 238.206 61.185 238.894ZM69.0496 243.186V237.813H71.235V247.086H69.116V245.438H69.0194C68.8102 245.957 68.4661 246.382 67.9871 246.712C67.5122 247.042 66.9266 247.207 66.2304 247.207C65.6227 247.207 65.0854 247.072 64.6185 246.802C64.1557 246.529 63.7935 246.132 63.5319 245.613C63.2703 245.09 63.1395 244.458 63.1395 243.717V237.813H65.3248V243.379C65.3248 243.967 65.4858 244.434 65.8078 244.78C66.1298 245.126 66.5523 245.299 67.0756 245.299C67.3975 245.299 67.7094 245.221 68.0113 245.064C68.3131 244.907 68.5606 244.673 68.7538 244.363C68.951 244.049 69.0496 243.657 69.0496 243.186ZM80.8111 240.264L78.8189 240.482C78.7625 240.28 78.6639 240.091 78.5231 239.914C78.3862 239.737 78.2011 239.594 77.9677 239.485C77.7343 239.377 77.4485 239.322 77.1104 239.322C76.6557 239.322 76.2733 239.421 75.9634 239.618C75.6576 239.815 75.5066 240.071 75.5107 240.385C75.5066 240.655 75.6052 240.874 75.8065 241.043C76.0117 241.212 76.3498 241.351 76.8207 241.46L78.4023 241.798C79.2797 241.987 79.9317 242.287 80.3583 242.697C80.7889 243.108 81.0063 243.645 81.0103 244.309C81.0063 244.893 80.8352 245.408 80.4972 245.854C80.1631 246.297 79.6983 246.643 79.1026 246.893C78.507 247.142 77.8228 247.267 77.0501 247.267C75.9151 247.267 75.0015 247.03 74.3093 246.555C73.6171 246.076 73.2045 245.41 73.0717 244.556L75.2028 244.351C75.2994 244.77 75.5046 245.086 75.8185 245.299C76.1325 245.512 76.541 245.619 77.044 245.619C77.5632 245.619 77.9798 245.512 78.2937 245.299C78.6116 245.086 78.7706 244.822 78.7706 244.508C78.7706 244.243 78.668 244.023 78.4627 243.85C78.2615 243.677 77.9476 243.544 77.521 243.452L75.9393 243.12C75.0498 242.935 74.3918 242.623 73.9652 242.184C73.5386 241.741 73.3273 241.182 73.3313 240.506C73.3273 239.934 73.4822 239.439 73.7962 239.021C74.1141 238.598 74.5548 238.272 75.1183 238.043C75.6857 237.809 76.3397 237.692 77.0803 237.692C78.1669 237.692 79.0221 237.924 79.646 238.387C80.2738 238.85 80.6622 239.475 80.8111 240.264ZM87.4426 237.813V239.504H82.112V237.813H87.4426ZM83.4281 235.592H85.6135V244.297C85.6135 244.591 85.6577 244.816 85.7463 244.973C85.8388 245.126 85.9596 245.231 86.1085 245.287C86.2574 245.343 86.4224 245.371 86.6035 245.371C86.7404 245.371 86.8651 245.361 86.9778 245.341C87.0945 245.321 87.1831 245.303 87.2434 245.287L87.6117 246.995C87.495 247.036 87.3279 247.08 87.1106 247.128C86.8973 247.176 86.6357 247.205 86.3258 247.213C85.7785 247.229 85.2855 247.146 84.8468 246.965C84.4081 246.78 84.06 246.494 83.8024 246.108C83.5488 245.722 83.4241 245.239 83.4281 244.659V235.592ZM93.2155 247.267C92.3099 247.267 91.5251 247.068 90.8611 246.669C90.197 246.271 89.6818 245.714 89.3156 244.997C88.9534 244.281 88.7723 243.444 88.7723 242.486C88.7723 241.528 88.9534 240.689 89.3156 239.968C89.6818 239.248 90.197 238.689 90.8611 238.29C91.5251 237.892 92.3099 237.692 93.2155 237.692C94.121 237.692 94.9058 237.892 95.5699 238.29C96.2339 238.689 96.7471 239.248 97.1093 239.968C97.4755 240.689 97.6586 241.528 97.6586 242.486C97.6586 243.444 97.4755 244.281 97.1093 244.997C96.7471 245.714 96.2339 246.271 95.5699 246.669C94.9058 247.068 94.121 247.267 93.2155 247.267ZM93.2275 245.516C93.7185 245.516 94.1291 245.382 94.4591 245.112C94.7891 244.838 95.0346 244.472 95.1956 244.013C95.3606 243.554 95.4431 243.043 95.4431 242.48C95.4431 241.912 95.3606 241.399 95.1956 240.94C95.0346 240.478 94.7891 240.109 94.4591 239.836C94.1291 239.562 93.7185 239.425 93.2275 239.425C92.7245 239.425 92.3059 239.562 91.9719 239.836C91.6418 240.109 91.3943 240.478 91.2293 240.94C91.0683 241.399 90.9878 241.912 90.9878 242.48C90.9878 243.043 91.0683 243.554 91.2293 244.013C91.3943 244.472 91.6418 244.838 91.9719 245.112C92.3059 245.382 92.7245 245.516 93.2275 245.516ZM99.5135 247.086V237.813H101.602V239.389H101.711C101.904 238.858 102.224 238.443 102.671 238.145C103.118 237.843 103.651 237.692 104.271 237.692C104.898 237.692 105.428 237.845 105.858 238.151C106.293 238.453 106.599 238.866 106.776 239.389H106.873C107.078 238.874 107.424 238.463 107.911 238.157C108.402 237.847 108.983 237.692 109.656 237.692C110.509 237.692 111.205 237.962 111.744 238.501C112.284 239.041 112.553 239.828 112.553 240.862V247.086H110.362V241.2C110.362 240.624 110.209 240.204 109.903 239.938C109.597 239.669 109.223 239.534 108.78 239.534C108.253 239.534 107.84 239.699 107.543 240.029C107.249 240.355 107.102 240.779 107.102 241.303V247.086H104.959V241.109C104.959 240.63 104.814 240.248 104.524 239.962C104.238 239.677 103.864 239.534 103.401 239.534C103.087 239.534 102.802 239.614 102.544 239.775C102.286 239.932 102.081 240.156 101.928 240.445C101.775 240.731 101.699 241.065 101.699 241.447V247.086H99.5135Z" fill="white"/>
<rect x="49.3828" y="256.086" width="277" height="13" rx="6.5" fill="url(#paint11_linear_964_28751)"/>
<rect x="10.6656" y="219.365" width="335.005" height="59.4369" rx="5.50237" stroke="url(#paint12_diamond_964_28751)" stroke-width="0.995255"/>
</g>
<path d="M0.335938 12.9297C0.335938 6.30228 5.70852 0.929688 12.3359 0.929688H346.336V258.93H0.335938V12.9297Z" fill="url(#paint13_linear_964_28751)"/>
<path d="M12.168 1.49763H345.67V258.502H0.665596V13C0.665596 6.64742 5.81538 1.49763 12.168 1.49763Z" stroke="url(#paint14_diamond_964_28751)" stroke-width="0.995255"/>
<defs>
<linearGradient id="paint0_linear_964_28751" x1="35.7856" y1="23.7647" x2="253.662" y2="335.116" gradientUnits="userSpaceOnUse">
<stop stop-color="white" stop-opacity="0.08"/>
<stop offset="0.989583" stop-color="white" stop-opacity="0"/>
</linearGradient>
<linearGradient id="paint1_linear_964_28751" x1="44.7562" y1="16.2941" x2="62.3386" y2="121.212" gradientUnits="userSpaceOnUse">
<stop stop-color="white" stop-opacity="0.08"/>
<stop offset="0.989583" stop-color="white" stop-opacity="0"/>
</linearGradient>
<linearGradient id="paint2_linear_964_28751" x1="62.3124" y1="54.4976" x2="350.26" y2="54.4976" gradientUnits="userSpaceOnUse">
<stop stop-color="#71717A"/>
<stop offset="1" stop-color="#71717A" stop-opacity="0"/>
</linearGradient>
<radialGradient id="paint3_diamond_964_28751" cx="0" cy="0" r="1" gradientUnits="userSpaceOnUse" gradientTransform="translate(10.168 13.9859) rotate(25.3275) scale(133.252 376.741)">
<stop stop-color="#3F3F46"/>
<stop offset="1" stop-color="#3F3F46" stop-opacity="0"/>
</radialGradient>
<linearGradient id="paint4_linear_964_28751" x1="44.7562" y1="85.3322" x2="62.5857" y2="190.964" gradientUnits="userSpaceOnUse">
<stop stop-color="white" stop-opacity="0.08"/>
<stop offset="0.989583" stop-color="white" stop-opacity="0"/>
</linearGradient>
<linearGradient id="paint5_linear_964_28751" x1="59.5272" y1="123.716" x2="347.475" y2="123.716" gradientUnits="userSpaceOnUse">
<stop stop-color="#71717A"/>
<stop offset="1" stop-color="#71717A" stop-opacity="0"/>
</linearGradient>
<radialGradient id="paint6_diamond_964_28751" cx="0" cy="0" r="1" gradientUnits="userSpaceOnUse" gradientTransform="translate(10.168 83.0074) rotate(25.4869) scale(133.428 378.954)">
<stop stop-color="#3F3F46"/>
<stop offset="1" stop-color="#3F3F46" stop-opacity="0"/>
</radialGradient>
<linearGradient id="paint7_linear_964_28751" x1="44.7562" y1="154.762" x2="62.5857" y2="260.394" gradientUnits="userSpaceOnUse">
<stop stop-color="white" stop-opacity="0.08"/>
<stop offset="0.989583" stop-color="white" stop-opacity="0"/>
</linearGradient>
<linearGradient id="paint8_linear_964_28751" x1="59.5272" y1="193.146" x2="347.475" y2="193.146" gradientUnits="userSpaceOnUse">
<stop stop-color="#71717A"/>
<stop offset="1" stop-color="#71717A" stop-opacity="0"/>
</linearGradient>
<radialGradient id="paint9_diamond_964_28751" cx="0" cy="0" r="1" gradientUnits="userSpaceOnUse" gradientTransform="translate(10.168 152.437) rotate(25.4869) scale(133.428 378.954)">
<stop stop-color="#3F3F46"/>
<stop offset="1" stop-color="#3F3F46" stop-opacity="0"/>
</radialGradient>
<linearGradient id="paint10_linear_964_28751" x1="44.7562" y1="224.199" x2="62.5857" y2="329.831" gradientUnits="userSpaceOnUse">
<stop stop-color="white" stop-opacity="0.08"/>
<stop offset="0.989583" stop-color="white" stop-opacity="0"/>
</linearGradient>
<linearGradient id="paint11_linear_964_28751" x1="59.5272" y1="262.584" x2="347.475" y2="262.583" gradientUnits="userSpaceOnUse">
<stop stop-color="#71717A"/>
<stop offset="1" stop-color="#71717A" stop-opacity="0"/>
</linearGradient>
<radialGradient id="paint12_diamond_964_28751" cx="0" cy="0" r="1" gradientUnits="userSpaceOnUse" gradientTransform="translate(10.168 221.875) rotate(25.4869) scale(133.428 378.954)">
<stop stop-color="#3F3F46"/>
<stop offset="1" stop-color="#3F3F46" stop-opacity="0"/>
</radialGradient>
<linearGradient id="paint13_linear_964_28751" x1="313.256" y1="239.084" x2="21.8542" y2="119.899" gradientUnits="userSpaceOnUse">
<stop stop-color="#18181B"/>
<stop offset="1" stop-color="#18181B" stop-opacity="0.34"/>
</linearGradient>
<radialGradient id="paint14_diamond_964_28751" cx="0" cy="0" r="1" gradientUnits="userSpaceOnUse" gradientTransform="translate(0.167969 13.8395) rotate(63.1609) scale(274.709 809.184)">
<stop stop-color="#3F3F46"/>
<stop offset="1" stop-color="#3F3F46" stop-opacity="0"/>
</radialGradient>
<clipPath id="clip0_964_28751">
<rect width="17.0268" height="17.0268" fill="white" transform="translate(26.3828 92.2188)"/>
</clipPath>
</defs>
</svg>
