<svg width="24" height="24" viewBox="0 0 24 24" fill="none" xmlns="http://www.w3.org/2000/svg">
<path d="M7.5 2C5.71 3.15 4.5 5.18 4.5 7.5C4.5 9.82 5.71 11.85 7.53 13C4.46 13 2 10.54 2 7.5C2 6.04131 2.57946 4.64236 3.61091 3.61091C4.64236 2.57946 6.04131 2 7.5 2ZM18.355 4.215C18.7499 3.82012 19.3901 3.82012 19.785 4.215C20.1799 4.60988 20.1799 5.25012 19.785 5.645L5.645 19.785C5.25012 20.1799 4.60988 20.1799 4.215 19.785C3.82012 19.3901 3.82012 18.7499 4.215 18.355L18.355 4.215ZM19 13.5C19 14.9587 18.4205 16.3576 17.3891 17.3891C16.3576 18.4205 14.9587 19 13.5 19C12.28 19 11.15 18.6 10.24 17.93L17.93 10.24C18.6 11.15 19 12.28 19 13.5ZM14.8436 20.2918C14.7316 20.1944 14.761 20.0131 14.8982 19.9562L17.0707 19.0543C17.2081 18.9972 17.3575 19.1049 17.3468 19.2533L17.1586 21.8807C17.1468 22.0451 16.9523 22.1255 16.8279 22.0173L14.8436 20.2918ZM19.2523 17.3579C19.1041 17.368 18.9969 17.2188 19.0539 17.0817L19.9559 14.9088C20.0129 14.7715 20.1945 14.7422 20.2918 14.8546L22.0175 16.847C22.1256 16.9717 22.0447 17.1662 21.8801 17.1775L19.2523 17.3579ZM20.2929 12.1742C20.1953 12.2869 20.0132 12.2571 19.9566 12.1192L19.0624 9.93849C19.0061 9.80115 19.1137 9.65248 19.2618 9.66312L21.8817 9.85138C22.046 9.86319 22.1264 10.0573 22.0186 10.1818L20.2929 12.1742ZM9.65323 19.2534C9.64257 19.1049 9.79197 18.9972 9.92941 19.0543L12.1011 19.9559C12.2384 20.0129 12.2677 20.1945 12.1553 20.2918L10.1718 22.0088C10.0473 22.1165 9.85319 22.0361 9.84139 21.8719L9.65323 19.2534Z" fill="#F43F5E" fill-opacity="0.2"/>
<path d="M7.5 2C5.71 3.15 4.5 5.18 4.5 7.5C4.5 9.82 5.71 11.85 7.53 13C4.46 13 2 10.54 2 7.5C2 6.04131 2.57946 4.64236 3.61091 3.61091C4.64236 2.57946 6.04131 2 7.5 2ZM18.355 4.215C18.7499 3.82012 19.3901 3.82012 19.785 4.215C20.1799 4.60988 20.1799 5.25012 19.785 5.645L5.645 19.785C5.25012 20.1799 4.60988 20.1799 4.215 19.785C3.82012 19.3901 3.82012 18.7499 4.215 18.355L18.355 4.215ZM19 13.5C19 14.9587 18.4205 16.3576 17.3891 17.3891C16.3576 18.4205 14.9587 19 13.5 19C12.28 19 11.15 18.6 10.24 17.93L17.93 10.24C18.6 11.15 19 12.28 19 13.5ZM14.8436 20.2918C14.7316 20.1944 14.761 20.0131 14.8982 19.9562L17.0707 19.0543C17.2081 18.9972 17.3575 19.1049 17.3468 19.2533L17.1586 21.8807C17.1468 22.0451 16.9523 22.1255 16.8279 22.0173L14.8436 20.2918ZM19.2523 17.3579C19.1041 17.368 18.9969 17.2188 19.0539 17.0817L19.9559 14.9088C20.0129 14.7715 20.1945 14.7422 20.2918 14.8546L22.0175 16.847C22.1256 16.9717 22.0447 17.1662 21.8801 17.1775L19.2523 17.3579ZM20.2929 12.1742C20.1953 12.2869 20.0132 12.2571 19.9566 12.1192L19.0624 9.93849C19.0061 9.80115 19.1137 9.65248 19.2618 9.66312L21.8817 9.85138C22.046 9.86319 22.1264 10.0573 22.0186 10.1818L20.2929 12.1742ZM9.65323 19.2534C9.64257 19.1049 9.79197 18.9972 9.92941 19.0543L12.1011 19.9559C12.2384 20.0129 12.2677 20.1945 12.1553 20.2918L10.1718 22.0088C10.0473 22.1165 9.85319 22.0361 9.84139 21.8719L9.65323 19.2534Z" fill="url(#paint0_linear_949_27136)"/>
<defs>
<linearGradient id="paint0_linear_949_27136" x1="12.14" y1="2" x2="12.7033" y2="26.373" gradientUnits="userSpaceOnUse">
<stop stop-color="white"/>
<stop offset="1" stop-color="white" stop-opacity="0"/>
</linearGradient>
</defs>
</svg>
