<svg width="24" height="24" viewBox="0 0 24 24" fill="none" xmlns="http://www.w3.org/2000/svg">
<path d="M11.2515 9.331V0.75C11.2515 0.551088 11.3306 0.360322 11.4712 0.21967C11.6119 0.0790176 11.8026 0 12.0015 0C12.2005 0 12.3912 0.0790176 12.5319 0.21967C12.6725 0.360322 12.7515 0.551088 12.7515 0.75V9.33L14.7005 7.22C14.7661 7.14317 14.8465 7.08037 14.9369 7.03536C15.0273 6.99035 15.1258 6.96406 15.2266 6.95806C15.3274 6.95207 15.4284 6.96649 15.5235 7.00047C15.6186 7.03445 15.7059 7.08729 15.78 7.15581C15.8542 7.22433 15.9138 7.30713 15.9552 7.39923C15.9966 7.49134 16.019 7.59086 16.021 7.69183C16.023 7.79279 16.0046 7.89312 15.9669 7.9868C15.9292 8.08048 15.8729 8.16558 15.8015 8.237L12.5515 11.757C12.4813 11.833 12.3961 11.8937 12.3013 11.9352C12.2064 11.9768 12.1041 11.9982 12.0005 11.9982C11.897 11.9982 11.7946 11.9768 11.6998 11.9352C11.605 11.8937 11.5198 11.833 11.4495 11.757L8.19954 8.237C8.12996 8.16516 8.07545 8.08013 8.03922 7.98691C8.00299 7.89369 7.98577 7.79416 7.98858 7.69419C7.99138 7.59422 8.01415 7.49581 8.05555 7.40477C8.09695 7.31373 8.15614 7.23188 8.22963 7.16406C8.30313 7.09623 8.38945 7.04378 8.48352 7.00981C8.57758 6.97584 8.67749 6.96102 8.77737 6.96624C8.87725 6.97145 8.97507 6.99658 9.06509 7.04016C9.15511 7.08375 9.2355 7.14489 9.30154 7.22L11.2505 9.331H11.2515Z" fill="#F43F5E" fill-opacity="0.2"/>
<path d="M11.2515 9.331V0.75C11.2515 0.551088 11.3306 0.360322 11.4712 0.21967C11.6119 0.0790176 11.8026 0 12.0015 0C12.2005 0 12.3912 0.0790176 12.5319 0.21967C12.6725 0.360322 12.7515 0.551088 12.7515 0.75V9.33L14.7005 7.22C14.7661 7.14317 14.8465 7.08037 14.9369 7.03536C15.0273 6.99035 15.1258 6.96406 15.2266 6.95806C15.3274 6.95207 15.4284 6.96649 15.5235 7.00047C15.6186 7.03445 15.7059 7.08729 15.78 7.15581C15.8542 7.22433 15.9138 7.30713 15.9552 7.39923C15.9966 7.49134 16.019 7.59086 16.021 7.69183C16.023 7.79279 16.0046 7.89312 15.9669 7.9868C15.9292 8.08048 15.8729 8.16558 15.8015 8.237L12.5515 11.757C12.4813 11.833 12.3961 11.8937 12.3013 11.9352C12.2064 11.9768 12.1041 11.9982 12.0005 11.9982C11.897 11.9982 11.7946 11.9768 11.6998 11.9352C11.605 11.8937 11.5198 11.833 11.4495 11.757L8.19954 8.237C8.12996 8.16516 8.07545 8.08013 8.03922 7.98691C8.00299 7.89369 7.98577 7.79416 7.98858 7.69419C7.99138 7.59422 8.01415 7.49581 8.05555 7.40477C8.09695 7.31373 8.15614 7.23188 8.22963 7.16406C8.30313 7.09623 8.38945 7.04378 8.48352 7.00981C8.57758 6.97584 8.67749 6.96102 8.77737 6.96624C8.87725 6.97145 8.97507 6.99658 9.06509 7.04016C9.15511 7.08375 9.2355 7.14489 9.30154 7.22L11.2505 9.331H11.2515Z" fill="url(#paint0_linear_949_27142)"/>
<path d="M2.5 3.75V15.25C2.5 15.388 2.612 15.5 2.75 15.5H21.25C21.3163 15.5 21.3799 15.4737 21.4268 15.4268C21.4737 15.3799 21.5 15.3163 21.5 15.25V3.75C21.5 3.6837 21.4737 3.62011 21.4268 3.57322C21.3799 3.52634 21.3163 3.5 21.25 3.5H15.75C15.5511 3.5 15.3603 3.42098 15.2197 3.28033C15.079 3.13968 15 2.94891 15 2.75C15 2.55109 15.079 2.36032 15.2197 2.21967C15.3603 2.07902 15.5511 2 15.75 2H21.25C22.216 2 23 2.784 23 3.75V15.25C23 15.7141 22.8156 16.1592 22.4874 16.4874C22.1592 16.8156 21.7141 17 21.25 17H15.046C15.217 18.375 15.851 19.652 16.815 20.757C16.9088 20.8658 16.9694 20.9991 16.9898 21.1413C17.0102 21.2834 16.9895 21.4285 16.93 21.5592C16.8706 21.6899 16.775 21.8009 16.6545 21.879C16.534 21.9572 16.3936 21.9991 16.25 22H7.75C7.60594 22.0002 7.46489 21.9588 7.34371 21.8809C7.22252 21.803 7.12633 21.6919 7.06663 21.5608C7.00693 21.4297 6.98626 21.2842 7.00707 21.1416C7.02788 20.9991 7.08931 20.8656 7.184 20.757C8.149 19.652 8.783 18.375 8.954 17H2.75C2.28587 17 1.84075 16.8156 1.51256 16.4874C1.18437 16.1592 1 15.7141 1 15.25V3.75C1 2.784 1.784 2 2.75 2H8.25C8.44891 2 8.63968 2.07902 8.78033 2.21967C8.92098 2.36032 9 2.55109 9 2.75C9 2.94891 8.92098 3.13968 8.78033 3.28033C8.63968 3.42098 8.44891 3.5 8.25 3.5H2.75C2.6837 3.5 2.62011 3.52634 2.57322 3.57322C2.52634 3.62011 2.5 3.6837 2.5 3.75ZM10.463 17C10.337 18.266 9.899 19.445 9.24 20.5H14.76C14.1 19.445 13.662 18.266 13.537 17H10.463Z" fill="#F43F5E" fill-opacity="0.2"/>
<path d="M2.5 3.75V15.25C2.5 15.388 2.612 15.5 2.75 15.5H21.25C21.3163 15.5 21.3799 15.4737 21.4268 15.4268C21.4737 15.3799 21.5 15.3163 21.5 15.25V3.75C21.5 3.6837 21.4737 3.62011 21.4268 3.57322C21.3799 3.52634 21.3163 3.5 21.25 3.5H15.75C15.5511 3.5 15.3603 3.42098 15.2197 3.28033C15.079 3.13968 15 2.94891 15 2.75C15 2.55109 15.079 2.36032 15.2197 2.21967C15.3603 2.07902 15.5511 2 15.75 2H21.25C22.216 2 23 2.784 23 3.75V15.25C23 15.7141 22.8156 16.1592 22.4874 16.4874C22.1592 16.8156 21.7141 17 21.25 17H15.046C15.217 18.375 15.851 19.652 16.815 20.757C16.9088 20.8658 16.9694 20.9991 16.9898 21.1413C17.0102 21.2834 16.9895 21.4285 16.93 21.5592C16.8706 21.6899 16.775 21.8009 16.6545 21.879C16.534 21.9572 16.3936 21.9991 16.25 22H7.75C7.60594 22.0002 7.46489 21.9588 7.34371 21.8809C7.22252 21.803 7.12633 21.6919 7.06663 21.5608C7.00693 21.4297 6.98626 21.2842 7.00707 21.1416C7.02788 20.9991 7.08931 20.8656 7.184 20.757C8.149 19.652 8.783 18.375 8.954 17H2.75C2.28587 17 1.84075 16.8156 1.51256 16.4874C1.18437 16.1592 1 15.7141 1 15.25V3.75C1 2.784 1.784 2 2.75 2H8.25C8.44891 2 8.63968 2.07902 8.78033 2.21967C8.92098 2.36032 9 2.55109 9 2.75C9 2.94891 8.92098 3.13968 8.78033 3.28033C8.63968 3.42098 8.44891 3.5 8.25 3.5H2.75C2.6837 3.5 2.62011 3.52634 2.57322 3.57322C2.52634 3.62011 2.5 3.6837 2.5 3.75ZM10.463 17C10.337 18.266 9.899 19.445 9.24 20.5H14.76C14.1 19.445 13.662 18.266 13.537 17H10.463Z" fill="url(#paint1_linear_949_27142)"/>
<defs>
<linearGradient id="paint0_linear_949_27142" x1="12.0047" y1="0" x2="12.5022" y2="14.4102" gradientUnits="userSpaceOnUse">
<stop stop-color="white"/>
<stop offset="1" stop-color="white" stop-opacity="0"/>
</linearGradient>
<linearGradient id="paint1_linear_949_27142" x1="12" y1="2" x2="12.5051" y2="26.0387" gradientUnits="userSpaceOnUse">
<stop stop-color="white"/>
<stop offset="1" stop-color="white" stop-opacity="0"/>
</linearGradient>
</defs>
</svg>
