<svg width="24" height="24" viewBox="0 0 24 24" fill="none" xmlns="http://www.w3.org/2000/svg">
<path d="M22.275 4.5C23.22 4.5 24 5.28 23.985 6.225V17.775C23.985 18.72 23.22 19.5 22.26 19.5H1.725C0.78 19.5 0 18.72 0 17.76V6.225C0 5.28 0.78 4.5 1.725 4.5H22.275ZM13.5 16.5V7.5H10.5L8.25 10.5L6 7.5H3V16.5H6V12L8.25 14.88L10.5 12V16.5H13.5ZM17.985 17.25L21.75 12H19.5V7.5H16.5V12H14.25L17.985 17.25Z" fill="#F43F5E" fill-opacity="0.2"/>
<path d="M22.275 4.5C23.22 4.5 24 5.28 23.985 6.225V17.775C23.985 18.72 23.22 19.5 22.26 19.5H1.725C0.78 19.5 0 18.72 0 17.76V6.225C0 5.28 0.78 4.5 1.725 4.5H22.275ZM13.5 16.5V7.5H10.5L8.25 10.5L6 7.5H3V16.5H6V12L8.25 14.88L10.5 12V16.5H13.5ZM17.985 17.25L21.75 12H19.5V7.5H16.5V12H14.25L17.985 17.25Z" fill="url(#paint0_linear_949_27131)"/>
<defs>
<linearGradient id="paint0_linear_949_27131" x1="11.9926" y1="4.5" x2="12.2533" y2="22.5332" gradientUnits="userSpaceOnUse">
<stop stop-color="white"/>
<stop offset="1" stop-color="white" stop-opacity="0"/>
</linearGradient>
</defs>
</svg>
