<svg width="24" height="24" viewBox="0 0 24 24" fill="none" xmlns="http://www.w3.org/2000/svg">
<path d="M15.7175 1.33013C15.9473 1.12986 16.2384 1.01383 16.543 1.00116C16.8475 0.988492 17.1472 1.07994 17.3928 1.26044C17.6384 1.44094 17.8152 1.69972 17.8941 1.99414C17.9729 2.28856 17.9491 2.60106 17.8265 2.88013L15.1485 9.00113H19.3095C20.9325 9.00113 21.6815 11.0171 20.4525 12.0761L8.10354 22.7221C7.90757 22.8931 7.65935 22.9925 7.39953 23.004C7.13971 23.0154 6.8837 22.9384 6.6734 22.7853C6.46311 22.6323 6.311 22.4124 6.24199 22.1617C6.17298 21.9109 6.19116 21.6442 6.29354 21.4051L8.99754 15.0011H4.67554C3.05654 15.0011 2.30554 12.9931 3.52754 11.9311L15.7175 1.33113V1.33013ZM16.1695 2.92513L4.51154 13.0621C4.47298 13.0955 4.44555 13.1399 4.43294 13.1893C4.42033 13.2387 4.42314 13.2908 4.44099 13.3386C4.45884 13.3864 4.49088 13.4276 4.5328 13.4566C4.57473 13.4857 4.62453 13.5012 4.67554 13.5011H10.1255C10.2494 13.5008 10.3714 13.5311 10.4807 13.5895C10.5899 13.6478 10.683 13.7323 10.7516 13.8355C10.8201 13.9386 10.862 14.0572 10.8736 14.1805C10.8851 14.3038 10.8658 14.4281 10.8175 14.5421L8.25854 20.6081L19.4735 10.9401C19.5121 10.9067 19.5395 10.8624 19.5521 10.8129C19.5647 10.7635 19.5619 10.7114 19.5441 10.6636C19.5262 10.6159 19.4942 10.5747 19.4523 10.5456C19.4104 10.5166 19.3605 10.5011 19.3095 10.5011H14.0015C13.877 10.5011 13.7545 10.47 13.645 10.4108C13.5355 10.3515 13.4425 10.2659 13.3743 10.1618C13.3062 10.0576 13.265 9.93807 13.2546 9.81401C13.2441 9.68994 13.2647 9.56524 13.3145 9.45113L16.1695 2.92513Z" fill="#407CFF" fill-opacity="0.45"/>
<path d="M15.7175 1.33013C15.9473 1.12986 16.2384 1.01383 16.543 1.00116C16.8475 0.988492 17.1472 1.07994 17.3928 1.26044C17.6384 1.44094 17.8152 1.69972 17.8941 1.99414C17.9729 2.28856 17.9491 2.60106 17.8265 2.88013L15.1485 9.00113H19.3095C20.9325 9.00113 21.6815 11.0171 20.4525 12.0761L8.10354 22.7221C7.90757 22.8931 7.65935 22.9925 7.39953 23.004C7.13971 23.0154 6.8837 22.9384 6.6734 22.7853C6.46311 22.6323 6.311 22.4124 6.24199 22.1617C6.17298 21.9109 6.19116 21.6442 6.29354 21.4051L8.99754 15.0011H4.67554C3.05654 15.0011 2.30554 12.9931 3.52754 11.9311L15.7175 1.33113V1.33013ZM16.1695 2.92513L4.51154 13.0621C4.47298 13.0955 4.44555 13.1399 4.43294 13.1893C4.42033 13.2387 4.42314 13.2908 4.44099 13.3386C4.45884 13.3864 4.49088 13.4276 4.5328 13.4566C4.57473 13.4857 4.62453 13.5012 4.67554 13.5011H10.1255C10.2494 13.5008 10.3714 13.5311 10.4807 13.5895C10.5899 13.6478 10.683 13.7323 10.7516 13.8355C10.8201 13.9386 10.862 14.0572 10.8736 14.1805C10.8851 14.3038 10.8658 14.4281 10.8175 14.5421L8.25854 20.6081L19.4735 10.9401C19.5121 10.9067 19.5395 10.8624 19.5521 10.8129C19.5647 10.7635 19.5619 10.7114 19.5441 10.6636C19.5262 10.6159 19.4942 10.5747 19.4523 10.5456C19.4104 10.5166 19.3605 10.5011 19.3095 10.5011H14.0015C13.877 10.5011 13.7545 10.47 13.645 10.4108C13.5355 10.3515 13.4425 10.2659 13.3743 10.1618C13.3062 10.0576 13.265 9.93807 13.2546 9.81401C13.2441 9.68994 13.2647 9.56524 13.3145 9.45113L16.1695 2.92513Z" fill="url(#paint0_linear_949_27116)"/>
<defs>
<linearGradient id="paint0_linear_949_27116" x1="11.9927" y1="1" x2="12.734" y2="27.4395" gradientUnits="userSpaceOnUse">
<stop stop-color="white"/>
<stop offset="1" stop-color="white" stop-opacity="0"/>
</linearGradient>
</defs>
</svg>
