<svg width="24" height="24" viewBox="0 0 24 24" fill="none" xmlns="http://www.w3.org/2000/svg">
<path d="M17.4999 14.0001H15.9999V10.0001H17.4999C19.3999 10.0001 21 8.40017 21 6.50006C21 4.59994 19.4001 3 17.4999 3C15.6 3 14.0001 4.59994 14.0001 6.50006V8.00006H10.0001L9.99994 6.50006C9.99994 4.59994 8.4 3 6.50006 3C4.59994 3 3 4.59994 3 6.50006C3 8.4 4.59994 9.99994 6.50006 9.99994H8.00006V13.9999L6.50006 14.0001C4.59994 14.0001 3 15.6 3 17.4999C3 19.4001 4.59994 21 6.50006 21C8.4 21 10.0001 19.4001 10.0001 17.4999L9.99995 15.9999H13.9999V17.4999C13.9999 19.3999 15.5998 21 17.5 21C19.3999 21 21 19.4001 21 17.4999C21 15.6 19.4001 14.0001 17.5 14.0001L17.4999 14.0001ZM15.9999 6.50006C15.9999 5.7 16.7001 5.00006 17.4999 5.00006C18.3 5.00006 18.9999 5.7 18.9999 6.50006C18.9999 7.29994 18.3 8.00006 17.4999 8.00006H15.9999V6.50006ZM8.00023 17.4998C8.00023 18.2998 7.30011 18.9998 6.50023 18.9998C5.70017 18.9998 5.00023 18.2998 5.00023 17.4998C5.00023 16.6999 5.70017 15.9998 6.50023 15.9998H8.00023V17.4998ZM6.50023 8.00006C5.70017 8.00006 5.00023 7.29994 5.00023 6.50006C5.00023 5.7 5.70017 5.00006 6.50023 5.00006C7.30011 5.00006 8.00023 5.7 8.00023 6.50006V8.00006H6.50023ZM10.0001 14.0001V10.0001H14.0001V14.0001H10.0001ZM17.5001 18.9998C16.7001 18.9998 16.0001 18.2998 16.0001 17.4998V15.9998H17.5001C18.3002 15.9998 19.0001 16.6997 19.0001 17.4998C19.0001 18.2998 18.3002 18.9998 17.5001 18.9998Z" fill="#F43F5E" fill-opacity="0.2"/>
<path d="M17.4999 14.0001H15.9999V10.0001H17.4999C19.3999 10.0001 21 8.40017 21 6.50006C21 4.59994 19.4001 3 17.4999 3C15.6 3 14.0001 4.59994 14.0001 6.50006V8.00006H10.0001L9.99994 6.50006C9.99994 4.59994 8.4 3 6.50006 3C4.59994 3 3 4.59994 3 6.50006C3 8.4 4.59994 9.99994 6.50006 9.99994H8.00006V13.9999L6.50006 14.0001C4.59994 14.0001 3 15.6 3 17.4999C3 19.4001 4.59994 21 6.50006 21C8.4 21 10.0001 19.4001 10.0001 17.4999L9.99995 15.9999H13.9999V17.4999C13.9999 19.3999 15.5998 21 17.5 21C19.3999 21 21 19.4001 21 17.4999C21 15.6 19.4001 14.0001 17.5 14.0001L17.4999 14.0001ZM15.9999 6.50006C15.9999 5.7 16.7001 5.00006 17.4999 5.00006C18.3 5.00006 18.9999 5.7 18.9999 6.50006C18.9999 7.29994 18.3 8.00006 17.4999 8.00006H15.9999V6.50006ZM8.00023 17.4998C8.00023 18.2998 7.30011 18.9998 6.50023 18.9998C5.70017 18.9998 5.00023 18.2998 5.00023 17.4998C5.00023 16.6999 5.70017 15.9998 6.50023 15.9998H8.00023V17.4998ZM6.50023 8.00006C5.70017 8.00006 5.00023 7.29994 5.00023 6.50006C5.00023 5.7 5.70017 5.00006 6.50023 5.00006C7.30011 5.00006 8.00023 5.7 8.00023 6.50006V8.00006H6.50023ZM10.0001 14.0001V10.0001H14.0001V14.0001H10.0001ZM17.5001 18.9998C16.7001 18.9998 16.0001 18.2998 16.0001 17.4998V15.9998H17.5001C18.3002 15.9998 19.0001 16.6997 19.0001 17.4998C19.0001 18.2998 18.3002 18.9998 17.5001 18.9998Z" fill="url(#paint0_linear_949_27140)"/>
<defs>
<linearGradient id="paint0_linear_949_27140" x1="12" y1="3" x2="12.5" y2="24.6328" gradientUnits="userSpaceOnUse">
<stop stop-color="white"/>
<stop offset="1" stop-color="white" stop-opacity="0"/>
</linearGradient>
</defs>
</svg>
