<svg width="24" height="24" viewBox="0 0 24 24" fill="none" xmlns="http://www.w3.org/2000/svg">
<path d="M10.25 5.25C10.25 5.05109 10.329 4.86032 10.4697 4.71967C10.6103 4.57902 10.8011 4.5 11 4.5H13C13.1989 4.5 13.3897 4.57902 13.5303 4.71967C13.671 4.86032 13.75 5.05109 13.75 5.25C13.75 5.44891 13.671 5.63968 13.5303 5.78033C13.3897 5.92098 13.1989 6 13 6H11C10.8011 6 10.6103 5.92098 10.4697 5.78033C10.329 5.63968 10.25 5.44891 10.25 5.25ZM12 19.5C12.2652 19.5 12.5196 19.3946 12.7071 19.2071C12.8946 19.0196 13 18.7652 13 18.5C13 18.2348 12.8946 17.9804 12.7071 17.7929C12.5196 17.6054 12.2652 17.5 12 17.5C11.7348 17.5 11.4804 17.6054 11.2929 17.7929C11.1054 17.9804 11 18.2348 11 18.5C11 18.7652 11.1054 19.0196 11.2929 19.2071C11.4804 19.3946 11.7348 19.5 12 19.5Z" fill="#F43F5E" fill-opacity="0.2"/>
<path d="M10.25 5.25C10.25 5.05109 10.329 4.86032 10.4697 4.71967C10.6103 4.57902 10.8011 4.5 11 4.5H13C13.1989 4.5 13.3897 4.57902 13.5303 4.71967C13.671 4.86032 13.75 5.05109 13.75 5.25C13.75 5.44891 13.671 5.63968 13.5303 5.78033C13.3897 5.92098 13.1989 6 13 6H11C10.8011 6 10.6103 5.92098 10.4697 5.78033C10.329 5.63968 10.25 5.44891 10.25 5.25ZM12 19.5C12.2652 19.5 12.5196 19.3946 12.7071 19.2071C12.8946 19.0196 13 18.7652 13 18.5C13 18.2348 12.8946 17.9804 12.7071 17.7929C12.5196 17.6054 12.2652 17.5 12 17.5C11.7348 17.5 11.4804 17.6054 11.2929 17.7929C11.1054 17.9804 11 18.2348 11 18.5C11 18.7652 11.1054 19.0196 11.2929 19.2071C11.4804 19.3946 11.7348 19.5 12 19.5Z" fill="url(#paint0_linear_949_27133)"/>
<path d="M4 2.75C4 1.784 4.784 1 5.75 1H18.25C19.216 1 20 1.784 20 2.75V21.25C20 21.7141 19.8156 22.1592 19.4874 22.4874C19.1592 22.8156 18.7141 23 18.25 23H5.75C5.28587 23 4.84075 22.8156 4.51256 22.4874C4.18437 22.1592 4 21.7141 4 21.25V2.75ZM5.75 2.5C5.6837 2.5 5.62011 2.52634 5.57322 2.57322C5.52634 2.62011 5.5 2.6837 5.5 2.75V21.25C5.5 21.388 5.612 21.5 5.75 21.5H18.25C18.3163 21.5 18.3799 21.4737 18.4268 21.4268C18.4737 21.3799 18.5 21.3163 18.5 21.25V2.75C18.5 2.6837 18.4737 2.62011 18.4268 2.57322C18.3799 2.52634 18.3163 2.5 18.25 2.5H5.75Z" fill="#F43F5E" fill-opacity="0.2"/>
<path d="M4 2.75C4 1.784 4.784 1 5.75 1H18.25C19.216 1 20 1.784 20 2.75V21.25C20 21.7141 19.8156 22.1592 19.4874 22.4874C19.1592 22.8156 18.7141 23 18.25 23H5.75C5.28587 23 4.84075 22.8156 4.51256 22.4874C4.18437 22.1592 4 21.7141 4 21.25V2.75ZM5.75 2.5C5.6837 2.5 5.62011 2.52634 5.57322 2.57322C5.52634 2.62011 5.5 2.6837 5.5 2.75V21.25C5.5 21.388 5.612 21.5 5.75 21.5H18.25C18.3163 21.5 18.3799 21.4737 18.4268 21.4268C18.4737 21.3799 18.5 21.3163 18.5 21.25V2.75C18.5 2.6837 18.4737 2.62011 18.4268 2.57322C18.3799 2.52634 18.3163 2.5 18.25 2.5H5.75Z" fill="url(#paint1_linear_949_27133)"/>
<defs>
<linearGradient id="paint0_linear_949_27133" x1="12" y1="4.5" x2="13.7693" y2="22.3617" gradientUnits="userSpaceOnUse">
<stop stop-color="white"/>
<stop offset="1" stop-color="white" stop-opacity="0"/>
</linearGradient>
<linearGradient id="paint1_linear_949_27133" x1="12" y1="1" x2="12.8399" y2="27.4275" gradientUnits="userSpaceOnUse">
<stop stop-color="white"/>
<stop offset="1" stop-color="white" stop-opacity="0"/>
</linearGradient>
</defs>
</svg>
