<svg width="347" height="259" viewBox="0 0 347 259" fill="none" xmlns="http://www.w3.org/2000/svg">
<path d="M0.997628 13C0.997628 6.64742 6.14742 1.49763 12.5 1.49763H346.002V258.502H0.997628V13Z" fill="url(#paint0_linear_976_31399)"/>
<path d="M30.3146 25.6364V38H28.0749V25.6364H30.3146ZM34.8287 32.5668V38H32.6434V28.7273H34.7322V30.3029H34.8408C35.0541 29.7837 35.3942 29.3712 35.8611 29.0653C36.3319 28.7595 36.9135 28.6065 37.6057 28.6065C38.2457 28.6065 38.8031 28.7434 39.278 29.017C39.7569 29.2907 40.1272 29.6871 40.3888 30.2063C40.6544 30.7255 40.7852 31.3554 40.7812 32.0959V38H38.5958V32.4339C38.5958 31.8142 38.4348 31.3292 38.1128 30.979C37.7949 30.6289 37.3542 30.4538 36.7907 30.4538C36.4084 30.4538 36.0683 30.5384 35.7705 30.7074C35.4767 30.8724 35.2453 31.1119 35.0763 31.4258C34.9113 31.7397 34.8287 32.12 34.8287 32.5668ZM43.0993 38V25.6364H45.2847V30.2607H45.3753C45.488 30.0353 45.6469 29.7958 45.8522 29.5423C46.0574 29.2847 46.3351 29.0653 46.6853 28.8842C47.0354 28.6991 47.4822 28.6065 48.0255 28.6065C48.7419 28.6065 49.3878 28.7897 49.9633 29.1559C50.5429 29.5181 51.0017 30.0554 51.3398 30.7678C51.6818 31.4761 51.8529 32.3454 51.8529 33.3757C51.8529 34.3939 51.6859 35.2592 51.3518 35.9716C51.0178 36.6839 50.563 37.2273 49.9875 37.6016C49.412 37.9759 48.76 38.163 48.0315 38.163C47.5003 38.163 47.0596 38.0745 46.7094 37.8974C46.3593 37.7203 46.0776 37.507 45.8643 37.2575C45.655 37.0039 45.492 36.7644 45.3753 36.5391H45.2485V38H43.0993ZM45.2425 33.3636C45.2425 33.9633 45.327 34.4885 45.496 34.9393C45.6691 35.39 45.9166 35.7422 46.2385 35.9957C46.5645 36.2453 46.959 36.37 47.4218 36.37C47.9047 36.37 48.3092 36.2412 48.6352 35.9837C48.9612 35.7221 49.2067 35.3659 49.3717 34.9151C49.5407 34.4603 49.6253 33.9432 49.6253 33.3636C49.6253 32.7881 49.5428 32.277 49.3778 31.8303C49.2127 31.3835 48.9672 31.0334 48.6412 30.7798C48.3153 30.5263 47.9088 30.3995 47.4218 30.3995C46.9549 30.3995 46.5585 30.5223 46.2325 30.7678C45.9065 31.0133 45.659 31.3574 45.49 31.8001C45.325 32.2428 45.2425 32.764 45.2425 33.3636ZM57.7555 38.1811C56.85 38.1811 56.0652 37.9819 55.4011 37.5835C54.737 37.185 54.2219 36.6276 53.8556 35.9112C53.4934 35.1948 53.3123 34.3577 53.3123 33.3999C53.3123 32.442 53.4934 31.6029 53.8556 30.8825C54.2219 30.162 54.737 29.6026 55.4011 29.2042C56.0652 28.8058 56.85 28.6065 57.7555 28.6065C58.661 28.6065 59.4458 28.8058 60.1099 29.2042C60.774 29.6026 61.2871 30.162 61.6493 30.8825C62.0156 31.6029 62.1987 32.442 62.1987 33.3999C62.1987 34.3577 62.0156 35.1948 61.6493 35.9112C61.2871 36.6276 60.774 37.185 60.1099 37.5835C59.4458 37.9819 58.661 38.1811 57.7555 38.1811ZM57.7676 36.4304C58.2586 36.4304 58.6691 36.2956 58.9991 36.0259C59.3291 35.7522 59.5746 35.386 59.7356 34.9272C59.9006 34.4684 59.9831 33.9573 59.9831 33.3938C59.9831 32.8263 59.9006 32.3132 59.7356 31.8544C59.5746 31.3916 59.3291 31.0233 58.9991 30.7496C58.6691 30.476 58.2586 30.3391 57.7676 30.3391C57.2645 30.3391 56.8459 30.476 56.5119 30.7496C56.1819 31.0233 55.9344 31.3916 55.7694 31.8544C55.6084 32.3132 55.5279 32.8263 55.5279 33.3938C55.5279 33.9573 55.6084 34.4684 55.7694 34.9272C55.9344 35.386 56.1819 35.7522 56.5119 36.0259C56.8459 36.2956 57.2645 36.4304 57.7676 36.4304ZM65.4918 28.7273L67.3633 32.1502L69.2649 28.7273H71.5771L68.782 33.3636L71.6254 38H69.3253L67.3633 34.6616L65.4194 38H63.1012L65.9265 33.3636L63.1737 28.7273H65.4918Z" fill="white"/>
<path d="M364.5 52H10.5V54H364.5V52Z" fill="#D4D4D8" fill-opacity="0.16" mask="url(#path-2-outside-1_976_31399)"/>
<rect x="10.9976" y="68.4976" width="335.005" height="59.0047" rx="5.50237" fill="url(#paint1_linear_976_31399)"/>
<path d="M34.4987 79.8359C30.832 79.8359 27.832 82.8359 27.832 86.5026C27.832 90.1693 30.832 93.1693 34.4987 93.1693C38.1654 93.1693 41.1654 90.1693 41.1654 86.5026C41.1654 82.8359 38.1654 79.8359 34.4987 79.8359ZM34.4987 91.8359C31.5587 91.8359 29.1654 89.4426 29.1654 86.5026C29.1654 83.5626 31.5587 81.1693 34.4987 81.1693C37.4387 81.1693 39.832 83.5626 39.832 86.5026C39.832 89.4426 37.4387 91.8359 34.4987 91.8359ZM37.5587 83.5559L33.1654 87.9493L31.4387 86.2293L30.4987 87.1693L33.1654 89.8359L38.4987 84.5026L37.5587 83.5559Z" fill="#818CF8"/>
<path d="M51.7589 92L53.4293 81.8182H54.6225L52.9521 92H51.7589ZM47.1502 89.2756L47.3441 88.0824H55.06L54.8661 89.2756H47.1502ZM48.1793 92L49.8498 81.8182H51.043L49.3725 92H48.1793ZM47.7418 85.7358L47.9357 84.5426H55.6516L55.4577 85.7358H47.7418ZM60.6978 81.8182V92H59.1566V83.3594H59.0969L56.6609 84.9503V83.4787L59.2013 81.8182H60.6978ZM63.4521 92V90.8864L66.8974 87.3168C67.2653 86.929 67.5685 86.5893 67.8072 86.2976C68.0491 86.0026 68.2298 85.7225 68.3491 85.4574C68.4684 85.1922 68.5281 84.9105 68.5281 84.6122C68.5281 84.2741 68.4485 83.9825 68.2894 83.7372C68.1303 83.4886 67.9132 83.2981 67.6381 83.1655C67.363 83.0296 67.0531 82.9616 66.7085 82.9616C66.3439 82.9616 66.0257 83.0362 65.7539 83.1854C65.4821 83.3345 65.2733 83.545 65.1275 83.8168C64.9817 84.0885 64.9087 84.4067 64.9087 84.7713H63.4421C63.4421 84.1515 63.5846 83.6096 63.8697 83.1456C64.1547 82.6816 64.5458 82.322 65.043 82.0668C65.5401 81.8082 66.1052 81.679 66.7383 81.679C67.378 81.679 67.9414 81.8066 68.4286 82.0618C68.9192 82.3137 69.302 82.6584 69.5771 83.0959C69.8522 83.5301 69.9897 84.0206 69.9897 84.5675C69.9897 84.9453 69.9184 85.3149 69.7759 85.6761C69.6367 86.0374 69.3931 86.4401 69.0451 86.8842C68.6971 87.325 68.2132 87.8603 67.5934 88.4901L65.57 90.608V90.6825H70.1538V92H63.4521Z" fill="white"/>
<path d="M78.2925 81.8182V92H76.7563V81.8182H78.2925ZM80.4104 92V84.3636H81.8373V85.6065H81.9317C82.0908 85.1856 82.351 84.8575 82.7123 84.6222C83.0735 84.3835 83.5061 84.2642 84.0099 84.2642C84.5203 84.2642 84.9478 84.3835 85.2925 84.6222C85.6405 84.8608 85.8974 85.1889 86.0631 85.6065H86.1427C86.325 85.1989 86.615 84.8741 87.0127 84.6321C87.4104 84.3868 87.8844 84.2642 88.4346 84.2642C89.1273 84.2642 89.6924 84.4813 90.1299 84.9155C90.5707 85.3497 90.7911 86.0043 90.7911 86.8793V92H89.3046V87.0185C89.3046 86.5014 89.1637 86.1269 88.882 85.8949C88.6003 85.6629 88.2639 85.5469 87.8728 85.5469C87.3889 85.5469 87.0127 85.696 86.7442 85.9943C86.4758 86.2893 86.3415 86.6688 86.3415 87.1328V92H84.86V86.924C84.86 86.5097 84.7307 86.1766 84.4722 85.9247C84.2137 85.6728 83.8773 85.5469 83.463 85.5469C83.1813 85.5469 82.9211 85.6214 82.6824 85.7706C82.4471 85.9164 82.2565 86.1203 82.1107 86.3821C81.9682 86.6439 81.8969 86.9472 81.8969 87.2919V92H80.4104ZM92.7835 94.8636V84.3636H94.2352V85.6016H94.3595C94.4456 85.4425 94.5699 85.2585 94.7323 85.0497C94.8947 84.8409 95.1201 84.6586 95.4085 84.5028C95.6968 84.3438 96.078 84.2642 96.5519 84.2642C97.1684 84.2642 97.7186 84.42 98.2025 84.7315C98.6864 85.0431 99.0659 85.4922 99.341 86.0788C99.6194 86.6655 99.7586 87.3714 99.7586 88.1967C99.7586 89.022 99.6211 89.7296 99.346 90.3196C99.0709 90.9062 98.693 91.3587 98.2124 91.6768C97.7319 91.9917 97.1833 92.1491 96.5669 92.1491C96.1028 92.1491 95.7233 92.0713 95.4284 91.9155C95.1367 91.7597 94.908 91.5774 94.7423 91.3686C94.5766 91.1598 94.449 90.9742 94.3595 90.8118H94.27V94.8636H92.7835ZM94.2401 88.1818C94.2401 88.7187 94.318 89.1894 94.4738 89.5938C94.6296 89.9981 94.855 90.3146 95.1499 90.5433C95.4449 90.7687 95.8062 90.8814 96.2338 90.8814C96.6779 90.8814 97.0491 90.7637 97.3474 90.5284C97.6457 90.2898 97.8711 89.9666 98.0235 89.5589C98.1793 89.1513 98.2572 88.6922 98.2572 88.1818C98.2572 87.678 98.181 87.2256 98.0285 86.8246C97.8794 86.4235 97.654 86.107 97.3524 85.875C97.0541 85.643 96.6812 85.527 96.2338 85.527C95.8029 85.527 95.4383 85.638 95.14 85.8601C94.845 86.0821 94.6213 86.392 94.4688 86.7898C94.3164 87.1875 94.2401 87.6515 94.2401 88.1818ZM101.424 92V84.3636H102.861V85.5767H102.94C103.08 85.1657 103.325 84.8426 103.676 84.6072C104.031 84.3686 104.432 84.2493 104.879 84.2493C104.972 84.2493 105.082 84.2526 105.207 84.2592C105.337 84.2659 105.438 84.2741 105.511 84.2841V85.706C105.451 85.6894 105.345 85.6712 105.193 85.6513C105.04 85.6281 104.888 85.6165 104.735 85.6165C104.384 85.6165 104.071 85.6911 103.796 85.8402C103.524 85.986 103.308 86.1899 103.149 86.4517C102.99 86.7102 102.911 87.0052 102.911 87.3366V92H101.424ZM109.74 92.1541C109.024 92.1541 108.4 91.9901 107.866 91.6619C107.332 91.3338 106.918 90.8748 106.623 90.2848C106.328 89.6948 106.181 89.0054 106.181 88.2166C106.181 87.4245 106.328 86.7318 106.623 86.1385C106.918 85.5452 107.332 85.0845 107.866 84.7564C108.4 84.4283 109.024 84.2642 109.74 84.2642C110.456 84.2642 111.081 84.4283 111.615 84.7564C112.148 85.0845 112.563 85.5452 112.858 86.1385C113.152 86.7318 113.3 87.4245 113.3 88.2166C113.3 89.0054 113.152 89.6948 112.858 90.2848C112.563 90.8748 112.148 91.3338 111.615 91.6619C111.081 91.9901 110.456 92.1541 109.74 92.1541ZM109.745 90.9062C110.209 90.9062 110.594 90.7836 110.899 90.5384C111.204 90.2931 111.429 89.9666 111.575 89.5589C111.724 89.1513 111.799 88.7022 111.799 88.2116C111.799 87.7244 111.724 87.277 111.575 86.8693C111.429 86.4583 111.204 86.1286 110.899 85.88C110.594 85.6314 110.209 85.5071 109.745 85.5071C109.278 85.5071 108.89 85.6314 108.582 85.88C108.277 86.1286 108.05 86.4583 107.901 86.8693C107.755 87.277 107.682 87.7244 107.682 88.2116C107.682 88.7022 107.755 89.1513 107.901 89.5589C108.05 89.9666 108.277 90.2931 108.582 90.5384C108.89 90.7836 109.278 90.9062 109.745 90.9062ZM121.232 84.3636L118.463 92H116.872L114.098 84.3636H115.694L117.628 90.2401H117.707L119.636 84.3636H121.232ZM125.661 92.1541C124.908 92.1541 124.26 91.9934 123.717 91.6719C123.176 91.3471 122.759 90.8913 122.464 90.3047C122.172 89.7147 122.026 89.0237 122.026 88.2315C122.026 87.4493 122.172 86.7599 122.464 86.1634C122.759 85.5668 123.17 85.1011 123.697 84.7663C124.227 84.4316 124.847 84.2642 125.556 84.2642C125.987 84.2642 126.405 84.3355 126.809 84.478C127.213 84.6205 127.576 84.8442 127.898 85.1491C128.219 85.4541 128.473 85.8501 128.658 86.3374C128.844 86.8213 128.937 87.4096 128.937 88.1023V88.6293H122.867V87.5156H127.48C127.48 87.1245 127.401 86.7782 127.242 86.4766C127.082 86.1716 126.859 85.9313 126.57 85.7557C126.285 85.58 125.951 85.4922 125.566 85.4922C125.149 85.4922 124.784 85.5949 124.472 85.8004C124.164 86.0026 123.926 86.2678 123.756 86.5959C123.591 86.9207 123.508 87.2737 123.508 87.6548V88.5249C123.508 89.0353 123.597 89.4695 123.776 89.8274C123.959 90.1854 124.212 90.4588 124.537 90.6477C124.862 90.8333 125.241 90.9261 125.676 90.9261C125.957 90.9261 126.214 90.8864 126.446 90.8068C126.678 90.724 126.879 90.6013 127.048 90.4389C127.217 90.2765 127.346 90.076 127.435 89.8374L128.842 90.0909C128.73 90.5052 128.528 90.8681 128.236 91.1797C127.948 91.4879 127.585 91.7282 127.147 91.9006C126.713 92.0696 126.217 92.1541 125.661 92.1541ZM135.778 87.4659V92H134.291V84.3636H135.718V85.6065H135.813C135.988 85.2022 136.263 84.8774 136.638 84.6321C137.016 84.3868 137.491 84.2642 138.065 84.2642C138.585 84.2642 139.041 84.3736 139.432 84.5923C139.823 84.8078 140.126 85.1293 140.342 85.5568C140.557 85.9844 140.665 86.513 140.665 87.1428V92H139.178V87.3217C139.178 86.7682 139.034 86.3357 138.746 86.0241C138.457 85.7093 138.061 85.5518 137.558 85.5518C137.213 85.5518 136.906 85.6264 136.638 85.7756C136.373 85.9247 136.162 86.1435 136.006 86.4318C135.854 86.7169 135.778 87.0616 135.778 87.4659ZM145.875 92.1541C145.159 92.1541 144.534 91.9901 144.001 91.6619C143.467 91.3338 143.053 90.8748 142.758 90.2848C142.463 89.6948 142.315 89.0054 142.315 88.2166C142.315 87.4245 142.463 86.7318 142.758 86.1385C143.053 85.5452 143.467 85.0845 144.001 84.7564C144.534 84.4283 145.159 84.2642 145.875 84.2642C146.591 84.2642 147.216 84.4283 147.749 84.7564C148.283 85.0845 148.697 85.5452 148.992 86.1385C149.287 86.7318 149.435 87.4245 149.435 88.2166C149.435 89.0054 149.287 89.6948 148.992 90.2848C148.697 90.8748 148.283 91.3338 147.749 91.6619C147.216 91.9901 146.591 92.1541 145.875 92.1541ZM145.88 90.9062C146.344 90.9062 146.729 90.7836 147.033 90.5384C147.338 90.2931 147.564 89.9666 147.71 89.5589C147.859 89.1513 147.933 88.7022 147.933 88.2116C147.933 87.7244 147.859 87.277 147.71 86.8693C147.564 86.4583 147.338 86.1286 147.033 85.88C146.729 85.6314 146.344 85.5071 145.88 85.5071C145.413 85.5071 145.025 85.6314 144.717 85.88C144.412 86.1286 144.185 86.4583 144.036 86.8693C143.89 87.277 143.817 87.7244 143.817 88.2116C143.817 88.7022 143.89 89.1513 144.036 89.5589C144.185 89.9666 144.412 90.2931 144.717 90.5384C145.025 90.7836 145.413 90.9062 145.88 90.9062ZM154.659 84.3636V85.5568H150.487V84.3636H154.659ZM151.606 82.5341H153.093V89.7578C153.093 90.0462 153.136 90.2633 153.222 90.4091C153.308 90.5516 153.419 90.6494 153.555 90.7024C153.694 90.7521 153.845 90.777 154.007 90.777C154.127 90.777 154.231 90.7687 154.321 90.7521C154.41 90.7356 154.48 90.7223 154.529 90.7124L154.798 91.9403C154.712 91.9735 154.589 92.0066 154.43 92.0398C154.271 92.0762 154.072 92.0961 153.833 92.0994C153.442 92.1061 153.078 92.0365 152.74 91.8906C152.402 91.7448 152.128 91.5194 151.919 91.2145C151.71 90.9096 151.606 90.5268 151.606 90.0661V82.5341ZM156.303 92V84.3636H157.79V92H156.303ZM157.054 83.1854C156.795 83.1854 156.573 83.0992 156.388 82.9268C156.205 82.7512 156.114 82.5424 156.114 82.3004C156.114 82.0552 156.205 81.8464 156.388 81.674C156.573 81.4983 156.795 81.4105 157.054 81.4105C157.312 81.4105 157.533 81.4983 157.715 81.674C157.901 81.8464 157.993 82.0552 157.993 82.3004C157.993 82.5424 157.901 82.7512 157.715 82.9268C157.533 83.0992 157.312 83.1854 157.054 83.1854ZM163.424 84.3636V85.5568H159.108V84.3636H163.424ZM160.291 92V83.4787C160.291 83.0014 160.396 82.6053 160.605 82.2905C160.813 81.9723 161.09 81.7353 161.435 81.5795C161.78 81.4205 162.154 81.3409 162.559 81.3409C162.857 81.3409 163.112 81.3658 163.324 81.4155C163.536 81.4619 163.694 81.505 163.796 81.5447L163.448 82.7479C163.379 82.728 163.289 82.7048 163.18 82.6783C163.071 82.6484 162.938 82.6335 162.782 82.6335C162.421 82.6335 162.162 82.723 162.007 82.902C161.854 83.081 161.778 83.3395 161.778 83.6776V92H160.291ZM164.957 92V84.3636H166.444V92H164.957ZM165.708 83.1854C165.449 83.1854 165.227 83.0992 165.042 82.9268C164.86 82.7512 164.768 82.5424 164.768 82.3004C164.768 82.0552 164.86 81.8464 165.042 81.674C165.227 81.4983 165.449 81.4105 165.708 81.4105C165.967 81.4105 166.187 81.4983 166.369 81.674C166.555 81.8464 166.648 82.0552 166.648 82.3004C166.648 82.5424 166.555 82.7512 166.369 82.9268C166.187 83.0992 165.967 83.1854 165.708 83.1854ZM171.66 92.1541C170.921 92.1541 170.285 91.9867 169.751 91.652C169.221 91.3139 168.813 90.8482 168.528 90.255C168.243 89.6617 168.101 88.9822 168.101 88.2166C168.101 87.4411 168.246 86.7566 168.538 86.1634C168.83 85.5668 169.241 85.1011 169.771 84.7663C170.301 84.4316 170.926 84.2642 171.645 84.2642C172.225 84.2642 172.742 84.3719 173.196 84.5874C173.651 84.7995 174.017 85.0978 174.295 85.4822C174.577 85.8667 174.744 86.3158 174.797 86.8295H173.351C173.271 86.4716 173.089 86.1634 172.804 85.9048C172.522 85.6463 172.144 85.517 171.67 85.517C171.256 85.517 170.893 85.6264 170.581 85.8452C170.273 86.0606 170.033 86.3688 169.861 86.7699C169.688 87.1676 169.602 87.6383 169.602 88.1818C169.602 88.7386 169.687 89.2192 169.856 89.6236C170.025 90.0279 170.263 90.3411 170.571 90.5632C170.883 90.7853 171.249 90.8963 171.67 90.8963C171.952 90.8963 172.207 90.8449 172.436 90.7422C172.668 90.6361 172.862 90.4853 173.017 90.2898C173.177 90.0942 173.288 89.8589 173.351 89.5838H174.797C174.744 90.0777 174.584 90.5185 174.315 90.9062C174.047 91.294 173.687 91.599 173.236 91.821C172.789 92.0431 172.263 92.1541 171.66 92.1541ZM178.609 92.169C178.125 92.169 177.688 92.0795 177.297 91.9006C176.906 91.7183 176.596 91.4548 176.367 91.1101C176.142 90.7654 176.029 90.3428 176.029 89.8423C176.029 89.4115 176.112 89.0568 176.278 88.7784C176.443 88.5 176.667 88.2796 176.949 88.1172C177.23 87.9548 177.545 87.8321 177.893 87.7493C178.241 87.6664 178.596 87.6035 178.957 87.5604C179.415 87.5073 179.786 87.4643 180.071 87.4311C180.356 87.3946 180.563 87.3366 180.692 87.2571C180.822 87.1776 180.886 87.0483 180.886 86.8693V86.8345C180.886 86.4003 180.764 86.0639 180.518 85.8253C180.276 85.5866 179.915 85.4673 179.435 85.4673C178.934 85.4673 178.54 85.5784 178.251 85.8004C177.966 86.0192 177.769 86.2628 177.66 86.5312L176.263 86.2131C176.428 85.7491 176.67 85.3745 176.989 85.0895C177.31 84.8011 177.68 84.5923 178.097 84.4631C178.515 84.3305 178.954 84.2642 179.415 84.2642C179.72 84.2642 180.043 84.3007 180.384 84.3736C180.729 84.4432 181.05 84.5724 181.349 84.7614C181.65 84.9503 181.897 85.2204 182.089 85.5717C182.282 85.9197 182.378 86.3722 182.378 86.929V92H180.926V90.956H180.866C180.77 91.1482 180.626 91.3371 180.434 91.5227C180.242 91.7083 179.995 91.8625 179.693 91.9851C179.391 92.1077 179.03 92.169 178.609 92.169ZM178.932 90.9759C179.343 90.9759 179.695 90.8946 179.986 90.7322C180.281 90.5698 180.505 90.3577 180.658 90.0959C180.813 89.8307 180.891 89.5473 180.891 89.2457V88.2614C180.838 88.3144 180.735 88.3641 180.583 88.4105C180.434 88.4536 180.263 88.4917 180.071 88.5249C179.879 88.5547 179.691 88.5829 179.509 88.6094C179.327 88.6326 179.174 88.6525 179.052 88.669C178.763 88.7055 178.5 88.7668 178.261 88.853C178.026 88.9392 177.837 89.0634 177.695 89.2259C177.555 89.3849 177.486 89.5971 177.486 89.8622C177.486 90.2301 177.622 90.5085 177.893 90.6974C178.165 90.883 178.512 90.9759 178.932 90.9759ZM187.922 84.3636V85.5568H183.751V84.3636H187.922ZM184.87 82.5341H186.356V89.7578C186.356 90.0462 186.399 90.2633 186.486 90.4091C186.572 90.5516 186.683 90.6494 186.819 90.7024C186.958 90.7521 187.109 90.777 187.271 90.777C187.39 90.777 187.495 90.7687 187.584 90.7521C187.674 90.7356 187.743 90.7223 187.793 90.7124L188.062 91.9403C187.975 91.9735 187.853 92.0066 187.694 92.0398C187.535 92.0762 187.336 92.0961 187.097 92.0994C186.706 92.1061 186.341 92.0365 186.003 91.8906C185.665 91.7448 185.392 91.5194 185.183 91.2145C184.974 90.9096 184.87 90.5268 184.87 90.0661V82.5341ZM189.567 92V84.3636H191.053V92H189.567ZM190.317 83.1854C190.059 83.1854 189.837 83.0992 189.651 82.9268C189.469 82.7512 189.378 82.5424 189.378 82.3004C189.378 82.0552 189.469 81.8464 189.651 81.674C189.837 81.4983 190.059 81.4105 190.317 81.4105C190.576 81.4105 190.796 81.4983 190.979 81.674C191.164 81.8464 191.257 82.0552 191.257 82.3004C191.257 82.5424 191.164 82.7512 190.979 82.9268C190.796 83.0992 190.576 83.1854 190.317 83.1854ZM196.27 92.1541C195.554 92.1541 194.929 91.9901 194.395 91.6619C193.862 91.3338 193.447 90.8748 193.152 90.2848C192.857 89.6948 192.71 89.0054 192.71 88.2166C192.71 87.4245 192.857 86.7318 193.152 86.1385C193.447 85.5452 193.862 85.0845 194.395 84.7564C194.929 84.4283 195.554 84.2642 196.27 84.2642C196.986 84.2642 197.61 84.4283 198.144 84.7564C198.678 85.0845 199.092 85.5452 199.387 86.1385C199.682 86.7318 199.829 87.4245 199.829 88.2166C199.829 89.0054 199.682 89.6948 199.387 90.2848C199.092 90.8748 198.678 91.3338 198.144 91.6619C197.61 91.9901 196.986 92.1541 196.27 92.1541ZM196.275 90.9062C196.739 90.9062 197.123 90.7836 197.428 90.5384C197.733 90.2931 197.958 89.9666 198.104 89.5589C198.253 89.1513 198.328 88.7022 198.328 88.2116C198.328 87.7244 198.253 87.277 198.104 86.8693C197.958 86.4583 197.733 86.1286 197.428 85.88C197.123 85.6314 196.739 85.5071 196.275 85.5071C195.807 85.5071 195.419 85.6314 195.111 85.88C194.806 86.1286 194.579 86.4583 194.43 86.8693C194.284 87.277 194.211 87.7244 194.211 88.2116C194.211 88.7022 194.284 89.1513 194.43 89.5589C194.579 89.9666 194.806 90.2931 195.111 90.5384C195.419 90.7836 195.807 90.9062 196.275 90.9062ZM202.975 87.4659V92H201.489V84.3636H202.915V85.6065H203.01C203.186 85.2022 203.461 84.8774 203.835 84.6321C204.213 84.3868 204.689 84.2642 205.262 84.2642C205.782 84.2642 206.238 84.3736 206.629 84.5923C207.02 84.8078 207.324 85.1293 207.539 85.5568C207.754 85.9844 207.862 86.513 207.862 87.1428V92H206.376V87.3217C206.376 86.7682 206.231 86.3357 205.943 86.0241C205.655 85.7093 205.259 85.5518 204.755 85.5518C204.41 85.5518 204.104 85.6264 203.835 85.7756C203.57 85.9247 203.36 86.1435 203.204 86.4318C203.051 86.7169 202.975 87.0616 202.975 87.4659ZM215.578 86.228L214.231 86.4666C214.174 86.2943 214.085 86.1302 213.962 85.9744C213.843 85.8187 213.681 85.6911 213.475 85.5916C213.27 85.4922 213.013 85.4425 212.704 85.4425C212.284 85.4425 211.932 85.5369 211.65 85.7259C211.369 85.9115 211.228 86.1518 211.228 86.4467C211.228 86.7019 211.322 86.9074 211.511 87.0632C211.7 87.219 212.005 87.3466 212.426 87.446L213.639 87.7244C214.342 87.8868 214.865 88.1371 215.21 88.4751C215.555 88.8132 215.727 89.2524 215.727 89.7926C215.727 90.25 215.595 90.6577 215.329 91.0156C215.068 91.3703 214.701 91.6487 214.231 91.8509C213.763 92.053 213.222 92.1541 212.605 92.1541C211.75 92.1541 211.052 91.9718 210.512 91.6072C209.972 91.2393 209.64 90.7173 209.518 90.0412L210.954 89.8224C211.044 90.197 211.228 90.4804 211.506 90.6726C211.785 90.8615 212.148 90.956 212.595 90.956C213.082 90.956 213.472 90.8549 213.763 90.6527C214.055 90.4472 214.201 90.197 214.201 89.902C214.201 89.6634 214.111 89.4628 213.932 89.3004C213.757 89.138 213.487 89.0154 213.122 88.9325L211.829 88.6491C211.117 88.4867 210.59 88.2282 210.248 87.8736C209.91 87.5189 209.741 87.0698 209.741 86.5263C209.741 86.0755 209.867 85.6811 210.119 85.343C210.371 85.005 210.719 84.7415 211.163 84.5526C211.607 84.3603 212.116 84.2642 212.69 84.2642C213.515 84.2642 214.164 84.4432 214.638 84.8011C215.112 85.1558 215.426 85.6314 215.578 86.228Z" fill="white"/>
<circle cx="288.5" cy="86.5" r="4" fill="#407CFF"/>
<path d="M298.357 83.9545H299.631V90.9261C299.631 91.3636 299.551 91.733 299.392 92.0341C299.236 92.3352 299.003 92.5639 298.693 92.7202C298.386 92.8764 298.007 92.9545 297.555 92.9545C297.51 92.9545 297.467 92.9545 297.428 92.9545C297.385 92.9545 297.341 92.9531 297.295 92.9503V91.8551C297.335 91.8551 297.371 91.8551 297.402 91.8551C297.43 91.8551 297.463 91.8551 297.5 91.8551C297.801 91.8551 298.018 91.7741 298.152 91.6122C298.288 91.4531 298.357 91.2216 298.357 90.9176V83.9545ZM298.987 82.9446C298.766 82.9446 298.575 82.8707 298.416 82.723C298.26 82.5724 298.182 82.3935 298.182 82.1861C298.182 81.9759 298.26 81.7969 298.416 81.6491C298.575 81.4986 298.766 81.4233 298.987 81.4233C299.209 81.4233 299.398 81.4986 299.554 81.6491C299.713 81.7969 299.793 81.9759 299.793 82.1861C299.793 82.3935 299.713 82.5724 299.554 82.723C299.398 82.8707 299.209 82.9446 298.987 82.9446ZM305.491 87.7855V83.9545H306.77V90.5H305.517V89.3665H305.449C305.298 89.7159 305.056 90.0071 304.724 90.2401C304.395 90.4702 303.984 90.5852 303.493 90.5852C303.072 90.5852 302.7 90.4929 302.376 90.3082C302.055 90.1207 301.802 89.8438 301.618 89.4773C301.436 89.1108 301.345 88.6577 301.345 88.1179V83.9545H302.619V87.9645C302.619 88.4105 302.743 88.7656 302.99 89.0298C303.237 89.294 303.558 89.4261 303.953 89.4261C304.191 89.4261 304.429 89.3665 304.664 89.2472C304.903 89.1278 305.1 88.9474 305.257 88.706C305.416 88.4645 305.494 88.1577 305.491 87.7855ZM313.386 85.5526L312.232 85.7571C312.183 85.6094 312.107 85.4687 312.001 85.3352C311.899 85.2017 311.76 85.0923 311.584 85.0071C311.408 84.9219 311.188 84.8793 310.923 84.8793C310.563 84.8793 310.261 84.9602 310.02 85.1222C309.778 85.2812 309.658 85.4872 309.658 85.7401C309.658 85.9588 309.739 86.1349 309.901 86.2685C310.063 86.402 310.324 86.5114 310.685 86.5966L311.724 86.8352C312.327 86.9744 312.776 87.1889 313.071 87.4787C313.366 87.7685 313.514 88.1449 313.514 88.608C313.514 89 313.401 89.3494 313.173 89.6562C312.949 89.9602 312.635 90.1989 312.232 90.3722C311.831 90.5455 311.366 90.6321 310.838 90.6321C310.105 90.6321 309.507 90.4759 309.044 90.1634C308.581 89.848 308.297 89.4006 308.192 88.821L309.423 88.6335C309.5 88.9545 309.658 89.1974 309.896 89.3622C310.135 89.5241 310.446 89.6051 310.83 89.6051C311.247 89.6051 311.581 89.5185 311.831 89.3452C312.081 89.169 312.206 88.9545 312.206 88.7017C312.206 88.4972 312.129 88.3253 311.976 88.1861C311.825 88.0469 311.594 87.9418 311.281 87.8707L310.173 87.6278C309.563 87.4886 309.111 87.267 308.818 86.9631C308.528 86.6591 308.384 86.2741 308.384 85.8082C308.384 85.4219 308.491 85.0838 308.707 84.794C308.923 84.5043 309.222 84.2784 309.602 84.1165C309.983 83.9517 310.419 83.8693 310.911 83.8693C311.618 83.8693 312.175 84.0227 312.581 84.3295C312.987 84.6335 313.256 85.0412 313.386 85.5526ZM317.971 83.9545V84.9773H314.395V83.9545H317.971ZM315.354 82.3864H316.628V88.5781C316.628 88.8253 316.665 89.0114 316.739 89.1364C316.813 89.2585 316.908 89.3423 317.025 89.3878C317.144 89.4304 317.273 89.4517 317.412 89.4517C317.515 89.4517 317.604 89.4446 317.681 89.4304C317.757 89.4162 317.817 89.4048 317.86 89.3963L318.09 90.4489C318.016 90.4773 317.911 90.5057 317.775 90.5341C317.638 90.5653 317.468 90.5824 317.263 90.5852C316.928 90.5909 316.615 90.5312 316.326 90.4062C316.036 90.2812 315.801 90.0881 315.623 89.8267C315.444 89.5653 315.354 89.2372 315.354 88.8423V82.3864ZM323.83 86.6136V90.5H322.556V83.9545H323.779V85.0199H323.86C324.01 84.6733 324.246 84.3949 324.567 84.1847C324.891 83.9744 325.299 83.8693 325.79 83.8693C326.236 83.8693 326.627 83.9631 326.962 84.1506C327.297 84.3352 327.557 84.6108 327.742 84.9773C327.926 85.3437 328.019 85.7969 328.019 86.3366V90.5H326.745V86.4901C326.745 86.0156 326.621 85.6449 326.374 85.3778C326.127 85.108 325.787 84.973 325.355 84.973C325.06 84.973 324.797 85.0369 324.567 85.1648C324.34 85.2926 324.159 85.4801 324.026 85.7273C323.895 85.9716 323.83 86.267 323.83 86.6136ZM332.485 90.6321C331.871 90.6321 331.336 90.4915 330.878 90.2102C330.421 89.929 330.066 89.5355 329.813 89.0298C329.56 88.5241 329.434 87.9332 329.434 87.2571C329.434 86.5781 329.56 85.9844 329.813 85.4759C330.066 84.9673 330.421 84.5724 330.878 84.2912C331.336 84.0099 331.871 83.8693 332.485 83.8693C333.098 83.8693 333.634 84.0099 334.091 84.2912C334.549 84.5724 334.904 84.9673 335.157 85.4759C335.409 85.9844 335.536 86.5781 335.536 87.2571C335.536 87.9332 335.409 88.5241 335.157 89.0298C334.904 89.5355 334.549 89.929 334.091 90.2102C333.634 90.4915 333.098 90.6321 332.485 90.6321ZM332.489 89.5625C332.887 89.5625 333.216 89.4574 333.478 89.2472C333.739 89.0369 333.932 88.7571 334.057 88.4077C334.185 88.0582 334.249 87.6733 334.249 87.2528C334.249 86.8352 334.185 86.4517 334.057 86.1023C333.932 85.75 333.739 85.4673 333.478 85.2543C333.216 85.0412 332.887 84.9347 332.489 84.9347C332.088 84.9347 331.756 85.0412 331.492 85.2543C331.23 85.4673 331.036 85.75 330.908 86.1023C330.783 86.4517 330.721 86.8352 330.721 87.2528C330.721 87.6733 330.783 88.0582 330.908 88.4077C331.036 88.7571 331.23 89.0369 331.492 89.2472C331.756 89.4574 332.088 89.5625 332.489 89.5625ZM338.178 90.5L336.252 83.9545H337.569L338.851 88.7614H338.915L340.202 83.9545H341.519L342.797 88.7401H342.861L344.135 83.9545H345.452L343.53 90.5H342.23L340.901 85.7741H340.803L339.473 90.5H338.178Z" fill="white"/>
<rect x="26.5" y="105" width="277" height="13" rx="6.5" fill="url(#paint2_linear_976_31399)"/>
<rect x="10.9976" y="68.4976" width="335.005" height="59.0047" rx="5.50237" stroke="url(#paint3_diamond_976_31399)" stroke-width="0.995255"/>
<g opacity="0.44">
<rect x="10.9976" y="137.498" width="335.005" height="59.4369" rx="5.50237" fill="url(#paint4_linear_976_31399)"/>
<g clip-path="url(#clip0_976_31399)">
<path fill-rule="evenodd" clip-rule="evenodd" d="M28.3828 155.716C28.3828 154.036 29.0501 152.426 30.2378 151.238C31.4255 150.05 33.0364 149.383 34.7161 149.383C36.3958 149.383 38.0068 150.05 39.1945 151.238C40.3822 152.426 41.0495 154.036 41.0495 155.716C41.0495 157.396 40.3822 159.007 39.1945 160.194C38.0068 161.382 36.3958 162.049 34.7161 162.049C33.0364 162.049 31.4255 161.382 30.2378 160.194C29.0501 159.007 28.3828 157.396 28.3828 155.716ZM34.7161 148.383C30.6661 148.383 27.3828 151.666 27.3828 155.716C27.3828 159.766 30.6661 163.049 34.7161 163.049C38.7661 163.049 42.0495 159.766 42.0495 155.716C42.0495 151.666 38.7661 148.383 34.7161 148.383ZM34.7161 157.049C35.0698 157.049 35.4089 156.909 35.659 156.659C35.909 156.409 36.0495 156.07 36.0495 155.716C36.0495 155.363 35.909 155.023 35.659 154.773C35.4089 154.523 35.0698 154.383 34.7161 154.383C34.3625 154.383 34.0234 154.523 33.7733 154.773C33.5233 155.023 33.3828 155.363 33.3828 155.716C33.3828 156.07 33.5233 156.409 33.7733 156.659C34.0234 156.909 34.3625 157.049 34.7161 157.049Z" fill="#00DC82"/>
</g>
<path d="M51.9737 161.219L53.6442 151.037H54.8374L53.1669 161.219H51.9737ZM47.3651 158.494L47.5589 157.301H55.2749L55.081 158.494H47.3651ZM48.3942 161.219L50.0646 151.037H51.2578L49.5874 161.219H48.3942ZM47.9567 154.955L48.1506 153.761H55.8665L55.6726 154.955H47.9567ZM60.9126 151.037V161.219H59.3714V152.578H59.3118L56.8757 154.169V152.697L59.4162 151.037H60.9126ZM63.6669 161.219V160.105L67.1122 156.536C67.4801 156.148 67.7834 155.808 68.022 155.516C68.264 155.221 68.4446 154.941 68.5639 154.676C68.6832 154.411 68.7429 154.129 68.7429 153.831C68.7429 153.493 68.6634 153.201 68.5043 152.956C68.3452 152.707 68.1281 152.517 67.853 152.384C67.5779 152.248 67.268 152.18 66.9233 152.18C66.5587 152.18 66.2405 152.255 65.9688 152.404C65.697 152.553 65.4882 152.764 65.3423 153.036C65.1965 153.307 65.1236 153.625 65.1236 153.99H63.657C63.657 153.37 63.7995 152.828 64.0845 152.364C64.3696 151.9 64.7607 151.541 65.2578 151.286C65.755 151.027 66.3201 150.898 66.9531 150.898C67.5928 150.898 68.1563 151.025 68.6435 151.281C69.134 151.532 69.5168 151.877 69.7919 152.315C70.067 152.749 70.2045 153.239 70.2045 153.786C70.2045 154.164 70.1333 154.534 69.9908 154.895C69.8516 155.256 69.608 155.659 69.2599 156.103C68.9119 156.544 68.428 157.079 67.8082 157.709L65.7848 159.827V159.901H70.3686V161.219H63.6669Z" fill="white"/>
<path d="M78.6304 151.037V161.219H77.0942V151.037H78.6304ZM80.7483 161.219V153.582H82.1752V154.825H82.2696C82.4287 154.404 82.6889 154.076 83.0502 153.841C83.4114 153.602 83.844 153.483 84.3477 153.483C84.8582 153.483 85.2857 153.602 85.6304 153.841C85.9784 154.08 86.2353 154.408 86.401 154.825H86.4806C86.6628 154.418 86.9529 154.093 87.3506 153.851C87.7483 153.606 88.2223 153.483 88.7725 153.483C89.4652 153.483 90.0303 153.7 90.4678 154.134C90.9086 154.568 91.129 155.223 91.129 156.098V161.219H89.6425V156.237C89.6425 155.72 89.5016 155.346 89.2199 155.114C88.9382 154.882 88.6018 154.766 88.2107 154.766C87.7268 154.766 87.3506 154.915 87.0821 155.213C86.8137 155.508 86.6794 155.888 86.6794 156.352V161.219H85.1979V156.143C85.1979 155.728 85.0686 155.395 84.8101 155.143C84.5516 154.892 84.2152 154.766 83.8009 154.766C83.5191 154.766 83.259 154.84 83.0203 154.989C82.785 155.135 82.5944 155.339 82.4486 155.601C82.3061 155.863 82.2348 156.166 82.2348 156.511V161.219H80.7483ZM93.1214 164.082V153.582H94.5731V154.82H94.6974C94.7835 154.661 94.9078 154.477 95.0702 154.268C95.2326 154.06 95.458 153.877 95.7464 153.722C96.0347 153.562 96.4159 153.483 96.8898 153.483C97.5063 153.483 98.0565 153.639 98.5404 153.95C99.0243 154.262 99.4038 154.711 99.6789 155.298C99.9573 155.884 100.097 156.59 100.097 157.415C100.097 158.241 99.959 158.948 99.6839 159.538C99.4088 160.125 99.0309 160.577 98.5503 160.896C98.0698 161.21 97.5212 161.368 96.9047 161.368C96.4407 161.368 96.0612 161.29 95.7662 161.134C95.4746 160.978 95.2459 160.796 95.0802 160.587C94.9144 160.379 94.7868 160.193 94.6974 160.031H94.6079V164.082H93.1214ZM94.578 157.401C94.578 157.937 94.6559 158.408 94.8117 158.812C94.9675 159.217 95.1929 159.533 95.4878 159.762C95.7828 159.987 96.1441 160.1 96.5716 160.1C97.0158 160.1 97.387 159.982 97.6853 159.747C97.9836 159.509 98.209 159.185 98.3614 158.778C98.5172 158.37 98.5951 157.911 98.5951 157.401C98.5951 156.897 98.5189 156.444 98.3664 156.043C98.2172 155.642 97.9919 155.326 97.6903 155.094C97.392 154.862 97.0191 154.746 96.5716 154.746C96.1408 154.746 95.7762 154.857 95.4779 155.079C95.1829 155.301 94.9592 155.611 94.8067 156.009C94.6543 156.406 94.578 156.87 94.578 157.401ZM103.248 151.037V161.219H101.762V151.037H103.248ZM108.54 161.373C107.787 161.373 107.139 161.212 106.596 160.891C106.055 160.566 105.638 160.11 105.343 159.523C105.051 158.933 104.905 158.242 104.905 157.45C104.905 156.668 105.051 155.979 105.343 155.382C105.638 154.786 106.049 154.32 106.576 153.985C107.106 153.65 107.726 153.483 108.435 153.483C108.866 153.483 109.284 153.554 109.688 153.697C110.092 153.839 110.455 154.063 110.777 154.368C111.098 154.673 111.352 155.069 111.537 155.556C111.723 156.04 111.816 156.628 111.816 157.321V157.848H105.745V156.734H110.359C110.359 156.343 110.28 155.997 110.12 155.695C109.961 155.39 109.738 155.15 109.449 154.974C109.164 154.799 108.83 154.711 108.445 154.711C108.027 154.711 107.663 154.814 107.351 155.019C107.043 155.221 106.804 155.487 106.635 155.815C106.47 156.139 106.387 156.492 106.387 156.874V157.744C106.387 158.254 106.476 158.688 106.655 159.046C106.838 159.404 107.091 159.678 107.416 159.866C107.741 160.052 108.12 160.145 108.554 160.145C108.836 160.145 109.093 160.105 109.325 160.026C109.557 159.943 109.758 159.82 109.927 159.658C110.096 159.495 110.225 159.295 110.314 159.056L111.721 159.31C111.609 159.724 111.406 160.087 111.115 160.398C110.826 160.707 110.464 160.947 110.026 161.119C109.592 161.288 109.096 161.373 108.54 161.373ZM113.465 161.219V153.582H114.892V154.825H114.986C115.146 154.404 115.406 154.076 115.767 153.841C116.128 153.602 116.561 153.483 117.065 153.483C117.575 153.483 118.003 153.602 118.347 153.841C118.695 154.08 118.952 154.408 119.118 154.825H119.197C119.38 154.418 119.67 154.093 120.067 153.851C120.465 153.606 120.939 153.483 121.489 153.483C122.182 153.483 122.747 153.7 123.185 154.134C123.625 154.568 123.846 155.223 123.846 156.098V161.219H122.359V156.237C122.359 155.72 122.218 155.346 121.937 155.114C121.655 154.882 121.319 154.766 120.927 154.766C120.444 154.766 120.067 154.915 119.799 155.213C119.53 155.508 119.396 155.888 119.396 156.352V161.219H117.915V156.143C117.915 155.728 117.785 155.395 117.527 155.143C117.268 154.892 116.932 154.766 116.518 154.766C116.236 154.766 115.976 154.84 115.737 154.989C115.502 155.135 115.311 155.339 115.165 155.601C115.023 155.863 114.952 156.166 114.952 156.511V161.219H113.465ZM129.129 161.373C128.377 161.373 127.729 161.212 127.185 160.891C126.645 160.566 126.228 160.11 125.933 159.523C125.641 158.933 125.495 158.242 125.495 157.45C125.495 156.668 125.641 155.979 125.933 155.382C126.228 154.786 126.639 154.32 127.166 153.985C127.696 153.65 128.316 153.483 129.025 153.483C129.456 153.483 129.873 153.554 130.278 153.697C130.682 153.839 131.045 154.063 131.367 154.368C131.688 154.673 131.942 155.069 132.127 155.556C132.313 156.04 132.406 156.628 132.406 157.321V157.848H126.335V156.734H130.949C130.949 156.343 130.869 155.997 130.71 155.695C130.551 155.39 130.328 155.15 130.039 154.974C129.754 154.799 129.419 154.711 129.035 154.711C128.617 154.711 128.253 154.814 127.941 155.019C127.633 155.221 127.394 155.487 127.225 155.815C127.06 156.139 126.977 156.492 126.977 156.874V157.744C126.977 158.254 127.066 158.688 127.245 159.046C127.427 159.404 127.681 159.678 128.006 159.866C128.331 160.052 128.71 160.145 129.144 160.145C129.426 160.145 129.683 160.105 129.915 160.026C130.147 159.943 130.347 159.82 130.516 159.658C130.685 159.495 130.815 159.295 130.904 159.056L132.311 159.31C132.198 159.724 131.996 160.087 131.705 160.398C131.416 160.707 131.053 160.947 130.616 161.119C130.182 161.288 129.686 161.373 129.129 161.373ZM135.541 156.685V161.219H134.055V153.582H135.482V154.825H135.576C135.752 154.421 136.027 154.096 136.402 153.851C136.779 153.606 137.255 153.483 137.828 153.483C138.349 153.483 138.804 153.592 139.196 153.811C139.587 154.027 139.89 154.348 140.105 154.776C140.321 155.203 140.429 155.732 140.429 156.362V161.219H138.942V156.54C138.942 155.987 138.798 155.554 138.509 155.243C138.221 154.928 137.825 154.771 137.321 154.771C136.977 154.771 136.67 154.845 136.402 154.994C136.136 155.143 135.926 155.362 135.77 155.651C135.618 155.936 135.541 156.28 135.541 156.685ZM145.987 153.582V154.776H141.816V153.582H145.987ZM142.934 151.753H144.421V158.977C144.421 159.265 144.464 159.482 144.55 159.628C144.636 159.77 144.747 159.868 144.883 159.921C145.022 159.971 145.173 159.996 145.335 159.996C145.455 159.996 145.559 159.987 145.649 159.971C145.738 159.954 145.808 159.941 145.858 159.931L146.126 161.159C146.04 161.192 145.917 161.225 145.758 161.259C145.599 161.295 145.4 161.315 145.161 161.318C144.77 161.325 144.406 161.255 144.068 161.109C143.73 160.964 143.456 160.738 143.247 160.433C143.039 160.128 142.934 159.746 142.934 159.285V151.753ZM151.336 161.219V153.582H152.773V154.795H152.853C152.992 154.384 153.237 154.061 153.588 153.826C153.943 153.587 154.344 153.468 154.791 153.468C154.884 153.468 154.994 153.471 155.12 153.478C155.249 153.485 155.35 153.493 155.423 153.503V154.925C155.363 154.908 155.257 154.89 155.105 154.87C154.952 154.847 154.8 154.835 154.647 154.835C154.296 154.835 153.983 154.91 153.708 155.059C153.436 155.205 153.22 155.409 153.061 155.67C152.902 155.929 152.823 156.224 152.823 156.555V161.219H151.336ZM159.652 161.373C158.937 161.373 158.312 161.209 157.778 160.881C157.245 160.553 156.83 160.094 156.535 159.504C156.24 158.914 156.093 158.224 156.093 157.435C156.093 156.643 156.24 155.951 156.535 155.357C156.83 154.764 157.245 154.303 157.778 153.975C158.312 153.647 158.937 153.483 159.652 153.483C160.368 153.483 160.993 153.647 161.527 153.975C162.06 154.303 162.475 154.764 162.77 155.357C163.065 155.951 163.212 156.643 163.212 157.435C163.212 158.224 163.065 158.914 162.77 159.504C162.475 160.094 162.06 160.553 161.527 160.881C160.993 161.209 160.368 161.373 159.652 161.373ZM159.657 160.125C160.121 160.125 160.506 160.002 160.811 159.757C161.116 159.512 161.341 159.185 161.487 158.778C161.636 158.37 161.711 157.921 161.711 157.43C161.711 156.943 161.636 156.496 161.487 156.088C161.341 155.677 161.116 155.347 160.811 155.099C160.506 154.85 160.121 154.726 159.657 154.726C159.19 154.726 158.802 154.85 158.494 155.099C158.189 155.347 157.962 155.677 157.813 156.088C157.667 156.496 157.594 156.943 157.594 157.43C157.594 157.921 157.667 158.37 157.813 158.778C157.962 159.185 158.189 159.512 158.494 159.757C158.802 160.002 159.19 160.125 159.657 160.125ZM167.094 161.388C166.61 161.388 166.172 161.298 165.781 161.119C165.39 160.937 165.08 160.674 164.851 160.329C164.626 159.984 164.513 159.562 164.513 159.061C164.513 158.63 164.596 158.276 164.762 157.997C164.928 157.719 165.151 157.498 165.433 157.336C165.715 157.174 166.03 157.051 166.378 156.968C166.726 156.885 167.08 156.822 167.442 156.779C167.899 156.726 168.27 156.683 168.555 156.65C168.84 156.613 169.047 156.555 169.177 156.476C169.306 156.396 169.371 156.267 169.371 156.088V156.053C169.371 155.619 169.248 155.283 169.003 155.044C168.761 154.805 168.4 154.686 167.919 154.686C167.418 154.686 167.024 154.797 166.736 155.019C166.451 155.238 166.253 155.482 166.144 155.75L164.747 155.432C164.913 154.968 165.155 154.593 165.473 154.308C165.794 154.02 166.164 153.811 166.582 153.682C166.999 153.549 167.438 153.483 167.899 153.483C168.204 153.483 168.527 153.519 168.869 153.592C169.213 153.662 169.535 153.791 169.833 153.98C170.135 154.169 170.382 154.439 170.574 154.79C170.766 155.138 170.862 155.591 170.862 156.148V161.219H169.41V160.175H169.351C169.255 160.367 169.11 160.556 168.918 160.741C168.726 160.927 168.479 161.081 168.177 161.204C167.876 161.326 167.515 161.388 167.094 161.388ZM167.417 160.195C167.828 160.195 168.179 160.113 168.471 159.951C168.766 159.789 168.989 159.576 169.142 159.315C169.298 159.049 169.376 158.766 169.376 158.464V157.48C169.323 157.533 169.22 157.583 169.067 157.629C168.918 157.672 168.748 157.71 168.555 157.744C168.363 157.773 168.176 157.802 167.994 157.828C167.811 157.851 167.659 157.871 167.536 157.888C167.248 157.924 166.984 157.986 166.746 158.072C166.51 158.158 166.321 158.282 166.179 158.445C166.04 158.604 165.97 158.816 165.97 159.081C165.97 159.449 166.106 159.727 166.378 159.916C166.65 160.102 166.996 160.195 167.417 160.195ZM175.701 161.368C175.084 161.368 174.534 161.21 174.05 160.896C173.57 160.577 173.192 160.125 172.917 159.538C172.645 158.948 172.509 158.241 172.509 157.415C172.509 156.59 172.647 155.884 172.922 155.298C173.2 154.711 173.581 154.262 174.065 153.95C174.549 153.639 175.098 153.483 175.711 153.483C176.185 153.483 176.566 153.562 176.854 153.722C177.146 153.877 177.371 154.06 177.53 154.268C177.693 154.477 177.819 154.661 177.908 154.82H177.998V151.037H179.484V161.219H178.032V160.031H177.908C177.819 160.193 177.689 160.379 177.52 160.587C177.355 160.796 177.126 160.978 176.834 161.134C176.543 161.29 176.165 161.368 175.701 161.368ZM176.029 160.1C176.456 160.1 176.818 159.987 177.113 159.762C177.411 159.533 177.636 159.217 177.789 158.812C177.945 158.408 178.022 157.937 178.022 157.401C178.022 156.87 177.946 156.406 177.794 156.009C177.641 155.611 177.418 155.301 177.123 155.079C176.828 154.857 176.463 154.746 176.029 154.746C175.581 154.746 175.209 154.862 174.91 155.094C174.612 155.326 174.387 155.642 174.234 156.043C174.085 156.444 174.01 156.897 174.01 157.401C174.01 157.911 174.087 158.37 174.239 158.778C174.392 159.185 174.617 159.509 174.915 159.747C175.217 159.982 175.588 160.1 176.029 160.1ZM181.606 161.219V153.582H183.033V154.825H183.127C183.286 154.404 183.546 154.076 183.908 153.841C184.269 153.602 184.701 153.483 185.205 153.483C185.716 153.483 186.143 153.602 186.488 153.841C186.836 154.08 187.093 154.408 187.258 154.825H187.338C187.52 154.418 187.81 154.093 188.208 153.851C188.606 153.606 189.08 153.483 189.63 153.483C190.323 153.483 190.888 153.7 191.325 154.134C191.766 154.568 191.986 155.223 191.986 156.098V161.219H190.5V156.237C190.5 155.72 190.359 155.346 190.077 155.114C189.796 154.882 189.459 154.766 189.068 154.766C188.584 154.766 188.208 154.915 187.94 155.213C187.671 155.508 187.537 155.888 187.537 156.352V161.219H186.055V156.143C186.055 155.728 185.926 155.395 185.668 155.143C185.409 154.892 185.073 154.766 184.658 154.766C184.377 154.766 184.116 154.84 183.878 154.989C183.642 155.135 183.452 155.339 183.306 155.601C183.164 155.863 183.092 156.166 183.092 156.511V161.219H181.606ZM196.201 161.388C195.717 161.388 195.28 161.298 194.889 161.119C194.497 160.937 194.188 160.674 193.959 160.329C193.734 159.984 193.621 159.562 193.621 159.061C193.621 158.63 193.704 158.276 193.869 157.997C194.035 157.719 194.259 157.498 194.541 157.336C194.822 157.174 195.137 157.051 195.485 156.968C195.833 156.885 196.188 156.822 196.549 156.779C197.006 156.726 197.378 156.683 197.663 156.65C197.948 156.613 198.155 156.555 198.284 156.476C198.413 156.396 198.478 156.267 198.478 156.088V156.053C198.478 155.619 198.355 155.283 198.11 155.044C197.868 154.805 197.507 154.686 197.026 154.686C196.526 154.686 196.131 154.797 195.843 155.019C195.558 155.238 195.361 155.482 195.252 155.75L193.854 155.432C194.02 154.968 194.262 154.593 194.58 154.308C194.902 154.02 195.271 153.811 195.689 153.682C196.107 153.549 196.546 153.483 197.006 153.483C197.311 153.483 197.635 153.519 197.976 153.592C198.321 153.662 198.642 153.791 198.94 153.98C199.242 154.169 199.489 154.439 199.681 154.79C199.873 155.138 199.97 155.591 199.97 156.148V161.219H198.518V160.175H198.458C198.362 160.367 198.218 160.556 198.026 160.741C197.833 160.927 197.586 161.081 197.285 161.204C196.983 161.326 196.622 161.388 196.201 161.388ZM196.524 160.195C196.935 160.195 197.287 160.113 197.578 159.951C197.873 159.789 198.097 159.576 198.249 159.315C198.405 159.049 198.483 158.766 198.483 158.464V157.48C198.43 157.533 198.327 157.583 198.175 157.629C198.026 157.672 197.855 157.71 197.663 157.744C197.47 157.773 197.283 157.802 197.101 157.828C196.919 157.851 196.766 157.871 196.644 157.888C196.355 157.924 196.092 157.986 195.853 158.072C195.618 158.158 195.429 158.282 195.286 158.445C195.147 158.604 195.078 158.816 195.078 159.081C195.078 159.449 195.213 159.727 195.485 159.916C195.757 160.102 196.103 160.195 196.524 160.195ZM201.949 164.082V153.582H203.401V154.82H203.525C203.612 154.661 203.736 154.477 203.898 154.268C204.061 154.06 204.286 153.877 204.574 153.722C204.863 153.562 205.244 153.483 205.718 153.483C206.334 153.483 206.885 153.639 207.369 153.95C207.852 154.262 208.232 154.711 208.507 155.298C208.785 155.884 208.925 156.59 208.925 157.415C208.925 158.241 208.787 158.948 208.512 159.538C208.237 160.125 207.859 160.577 207.378 160.896C206.898 161.21 206.349 161.368 205.733 161.368C205.269 161.368 204.889 161.29 204.594 161.134C204.303 160.978 204.074 160.796 203.908 160.587C203.743 160.379 203.615 160.193 203.525 160.031H203.436V164.082H201.949ZM203.406 157.401C203.406 157.937 203.484 158.408 203.64 158.812C203.796 159.217 204.021 159.533 204.316 159.762C204.611 159.987 204.972 160.1 205.4 160.1C205.844 160.1 206.215 159.982 206.513 159.747C206.812 159.509 207.037 159.185 207.19 158.778C207.345 158.37 207.423 157.911 207.423 157.401C207.423 156.897 207.347 156.444 207.195 156.043C207.045 155.642 206.82 155.326 206.518 155.094C206.22 154.862 205.847 154.746 205.4 154.746C204.969 154.746 204.604 154.857 204.306 155.079C204.011 155.301 203.787 155.611 203.635 156.009C203.482 156.406 203.406 156.87 203.406 157.401ZM217.929 153.582V154.776H213.614V153.582H217.929ZM214.797 161.219V152.697C214.797 152.22 214.902 151.824 215.111 151.509C215.319 151.191 215.596 150.954 215.941 150.798C216.285 150.639 216.66 150.56 217.064 150.56C217.363 150.56 217.618 150.585 217.83 150.634C218.042 150.681 218.2 150.724 218.302 150.763L217.954 151.967C217.885 151.947 217.795 151.924 217.686 151.897C217.576 151.867 217.444 151.852 217.288 151.852C216.927 151.852 216.668 151.942 216.513 152.121C216.36 152.3 216.284 152.558 216.284 152.896V161.219H214.797ZM222.454 161.373C221.701 161.373 221.053 161.212 220.51 160.891C219.969 160.566 219.552 160.11 219.257 159.523C218.965 158.933 218.819 158.242 218.819 157.45C218.819 156.668 218.965 155.979 219.257 155.382C219.552 154.786 219.963 154.32 220.49 153.985C221.02 153.65 221.64 153.483 222.349 153.483C222.78 153.483 223.198 153.554 223.602 153.697C224.006 153.839 224.369 154.063 224.691 154.368C225.012 154.673 225.266 155.069 225.451 155.556C225.637 156.04 225.73 156.628 225.73 157.321V157.848H219.66V156.734H224.273C224.273 156.343 224.194 155.997 224.035 155.695C223.875 155.39 223.652 155.15 223.363 154.974C223.078 154.799 222.744 154.711 222.359 154.711C221.941 154.711 221.577 154.814 221.265 155.019C220.957 155.221 220.718 155.487 220.549 155.815C220.384 156.139 220.301 156.492 220.301 156.874V157.744C220.301 158.254 220.39 158.688 220.569 159.046C220.752 159.404 221.005 159.678 221.33 159.866C221.655 160.052 222.034 160.145 222.468 160.145C222.75 160.145 223.007 160.105 223.239 160.026C223.471 159.943 223.672 159.82 223.841 159.658C224.01 159.495 224.139 159.295 224.228 159.056L225.635 159.31C225.523 159.724 225.321 160.087 225.029 160.398C224.741 160.707 224.378 160.947 223.94 161.119C223.506 161.288 223.01 161.373 222.454 161.373ZM229.601 161.388C229.118 161.388 228.68 161.298 228.289 161.119C227.898 160.937 227.588 160.674 227.359 160.329C227.134 159.984 227.021 159.562 227.021 159.061C227.021 158.63 227.104 158.276 227.27 157.997C227.436 157.719 227.659 157.498 227.941 157.336C228.223 157.174 228.538 157.051 228.886 156.968C229.234 156.885 229.588 156.822 229.949 156.779C230.407 156.726 230.778 156.683 231.063 156.65C231.348 156.613 231.555 156.555 231.685 156.476C231.814 156.396 231.878 156.267 231.878 156.088V156.053C231.878 155.619 231.756 155.283 231.511 155.044C231.269 154.805 230.907 154.686 230.427 154.686C229.926 154.686 229.532 154.797 229.244 155.019C228.958 155.238 228.761 155.482 228.652 155.75L227.255 155.432C227.421 154.968 227.663 154.593 227.981 154.308C228.302 154.02 228.672 153.811 229.089 153.682C229.507 153.549 229.946 153.483 230.407 153.483C230.712 153.483 231.035 153.519 231.376 153.592C231.721 153.662 232.043 153.791 232.341 153.98C232.642 154.169 232.889 154.439 233.082 154.79C233.274 155.138 233.37 155.591 233.37 156.148V161.219H231.918V160.175H231.859C231.762 160.367 231.618 160.556 231.426 160.741C231.234 160.927 230.987 161.081 230.685 161.204C230.384 161.326 230.022 161.388 229.601 161.388ZM229.925 160.195C230.336 160.195 230.687 160.113 230.979 159.951C231.274 159.789 231.497 159.576 231.65 159.315C231.806 159.049 231.883 158.766 231.883 158.464V157.48C231.83 157.533 231.728 157.583 231.575 157.629C231.426 157.672 231.255 157.71 231.063 157.744C230.871 157.773 230.684 157.802 230.501 157.828C230.319 157.851 230.167 157.871 230.044 157.888C229.756 157.924 229.492 157.986 229.253 158.072C229.018 158.158 228.829 158.282 228.687 158.445C228.547 158.604 228.478 158.816 228.478 159.081C228.478 159.449 228.614 159.727 228.886 159.916C229.157 160.102 229.504 160.195 229.925 160.195ZM238.915 153.582V154.776H234.743V153.582H238.915ZM235.862 151.753H237.348V158.977C237.348 159.265 237.392 159.482 237.478 159.628C237.564 159.77 237.675 159.868 237.811 159.921C237.95 159.971 238.101 159.996 238.263 159.996C238.383 159.996 238.487 159.987 238.576 159.971C238.666 159.954 238.736 159.941 238.785 159.931L239.054 161.159C238.968 161.192 238.845 161.225 238.686 161.259C238.527 161.295 238.328 161.315 238.089 161.318C237.698 161.325 237.334 161.255 236.995 161.109C236.657 160.964 236.384 160.738 236.175 160.433C235.966 160.128 235.862 159.746 235.862 159.285V151.753ZM241.538 161.313C241.266 161.313 241.033 161.217 240.837 161.025C240.642 160.829 240.544 160.594 240.544 160.319C240.544 160.047 240.642 159.815 240.837 159.623C241.033 159.427 241.266 159.33 241.538 159.33C241.81 159.33 242.044 159.427 242.239 159.623C242.435 159.815 242.533 160.047 242.533 160.319C242.533 160.501 242.486 160.669 242.393 160.821C242.304 160.97 242.185 161.089 242.035 161.179C241.886 161.268 241.721 161.313 241.538 161.313ZM245.503 161.313C245.231 161.313 244.998 161.217 244.802 161.025C244.607 160.829 244.509 160.594 244.509 160.319C244.509 160.047 244.607 159.815 244.802 159.623C244.998 159.427 245.231 159.33 245.503 159.33C245.775 159.33 246.009 159.427 246.204 159.623C246.4 159.815 246.497 160.047 246.497 160.319C246.497 160.501 246.451 160.669 246.358 160.821C246.269 160.97 246.149 161.089 246 161.179C245.851 161.268 245.685 161.313 245.503 161.313ZM249.468 161.313C249.196 161.313 248.963 161.217 248.767 161.025C248.571 160.829 248.474 160.594 248.474 160.319C248.474 160.047 248.571 159.815 248.767 159.623C248.963 159.427 249.196 159.33 249.468 159.33C249.74 159.33 249.973 159.427 250.169 159.623C250.364 159.815 250.462 160.047 250.462 160.319C250.462 160.501 250.416 160.669 250.323 160.821C250.234 160.97 250.114 161.089 249.965 161.179C249.816 161.268 249.65 161.313 249.468 161.313Z" fill="white"/>
<path d="M275.865 150.991V159.719H274.544V152.312H274.493L272.405 153.676V152.415L274.583 150.991H275.865ZM281.265 159.864C280.591 159.861 280.016 159.683 279.539 159.331C279.061 158.979 278.696 158.466 278.444 157.793C278.191 157.119 278.064 156.308 278.064 155.359C278.064 154.413 278.191 153.605 278.444 152.935C278.699 152.264 279.066 151.753 279.543 151.401C280.023 151.048 280.597 150.872 281.265 150.872C281.932 150.872 282.505 151.05 282.982 151.405C283.459 151.757 283.824 152.268 284.077 152.939C284.333 153.607 284.461 154.413 284.461 155.359C284.461 156.311 284.334 157.124 284.081 157.797C283.828 158.467 283.463 158.98 282.986 159.335C282.509 159.688 281.935 159.864 281.265 159.864ZM281.265 158.726C281.855 158.726 282.317 158.438 282.65 157.861C282.985 157.284 283.152 156.45 283.152 155.359C283.152 154.635 283.076 154.023 282.922 153.523C282.772 153.02 282.554 152.639 282.27 152.381C281.989 152.119 281.654 151.989 281.265 151.989C280.676 151.989 280.215 152.278 279.88 152.858C279.544 153.437 279.375 154.271 279.373 155.359C279.373 156.087 279.448 156.702 279.598 157.205C279.752 157.705 279.969 158.084 280.25 158.342C280.532 158.598 280.87 158.726 281.265 158.726ZM290.439 155.832V159.719H289.165V150.991H290.422V154.239H290.503C290.657 153.886 290.891 153.607 291.206 153.399C291.522 153.192 291.934 153.088 292.442 153.088C292.891 153.088 293.283 153.18 293.618 153.365C293.956 153.55 294.218 153.825 294.402 154.192C294.59 154.555 294.684 155.01 294.684 155.555V159.719H293.409V155.709C293.409 155.229 293.286 154.857 293.039 154.592C292.792 154.325 292.448 154.192 292.007 154.192C291.706 154.192 291.436 154.256 291.198 154.384C290.962 154.511 290.776 154.699 290.64 154.946C290.506 155.19 290.439 155.486 290.439 155.832ZM299.141 159.851C298.527 159.851 297.992 159.71 297.534 159.429C297.077 159.148 296.722 158.754 296.469 158.249C296.216 157.743 296.09 157.152 296.09 156.476C296.09 155.797 296.216 155.203 296.469 154.695C296.722 154.186 297.077 153.791 297.534 153.51C297.992 153.229 298.527 153.088 299.141 153.088C299.755 153.088 300.29 153.229 300.748 153.51C301.205 153.791 301.56 154.186 301.813 154.695C302.066 155.203 302.192 155.797 302.192 156.476C302.192 157.152 302.066 157.743 301.813 158.249C301.56 158.754 301.205 159.148 300.748 159.429C300.29 159.71 299.755 159.851 299.141 159.851ZM299.145 158.781C299.543 158.781 299.873 158.676 300.134 158.466C300.395 158.256 300.588 157.976 300.713 157.626C300.841 157.277 300.905 156.892 300.905 156.472C300.905 156.054 300.841 155.67 300.713 155.321C300.588 154.969 300.395 154.686 300.134 154.473C299.873 154.26 299.543 154.153 299.145 154.153C298.745 154.153 298.412 154.26 298.148 154.473C297.887 154.686 297.692 154.969 297.564 155.321C297.439 155.67 297.377 156.054 297.377 156.472C297.377 156.892 297.439 157.277 297.564 157.626C297.692 157.976 297.887 158.256 298.148 158.466C298.412 158.676 298.745 158.781 299.145 158.781ZM307.761 157.004V153.173H309.039V159.719H307.786V158.585H307.718C307.567 158.935 307.326 159.226 306.994 159.459C306.664 159.689 306.254 159.804 305.762 159.804C305.342 159.804 304.969 159.712 304.646 159.527C304.325 159.339 304.072 159.062 303.887 158.696C303.705 158.33 303.614 157.876 303.614 157.337V153.173H304.888V157.183C304.888 157.629 305.012 157.984 305.259 158.249C305.506 158.513 305.827 158.645 306.222 158.645C306.461 158.645 306.698 158.585 306.934 158.466C307.173 158.347 307.37 158.166 307.526 157.925C307.685 157.683 307.763 157.376 307.761 157.004ZM310.751 159.719V153.173H311.983V154.213H312.051C312.17 153.861 312.38 153.584 312.681 153.382C312.985 153.178 313.329 153.075 313.713 153.075C313.792 153.075 313.886 153.078 313.994 153.084C314.105 153.089 314.191 153.097 314.254 153.105V154.324C314.203 154.31 314.112 154.294 313.981 154.277C313.85 154.257 313.72 154.247 313.589 154.247C313.288 154.247 313.02 154.311 312.784 154.439C312.551 154.564 312.366 154.739 312.23 154.963C312.093 155.185 312.025 155.437 312.025 155.722V159.719H310.751ZM320.261 154.771L319.107 154.976C319.058 154.828 318.982 154.687 318.876 154.554C318.774 154.42 318.635 154.311 318.459 154.226C318.283 154.141 318.063 154.098 317.798 154.098C317.438 154.098 317.136 154.179 316.895 154.341C316.653 154.5 316.533 154.706 316.533 154.959C316.533 155.178 316.614 155.354 316.776 155.487C316.938 155.621 317.199 155.73 317.56 155.815L318.599 156.054C319.202 156.193 319.651 156.408 319.946 156.697C320.241 156.987 320.389 157.364 320.389 157.827C320.389 158.219 320.276 158.568 320.048 158.875C319.824 159.179 319.51 159.418 319.107 159.591C318.706 159.764 318.241 159.851 317.713 159.851C316.98 159.851 316.382 159.695 315.919 159.382C315.456 159.067 315.172 158.619 315.067 158.04L316.298 157.852C316.375 158.173 316.533 158.416 316.771 158.581C317.01 158.743 317.321 158.824 317.705 158.824C318.122 158.824 318.456 158.737 318.706 158.564C318.956 158.388 319.081 158.173 319.081 157.92C319.081 157.716 319.004 157.544 318.851 157.405C318.7 157.266 318.469 157.161 318.156 157.089L317.048 156.847C316.438 156.707 315.986 156.486 315.693 156.182C315.403 155.878 315.259 155.493 315.259 155.027C315.259 154.641 315.366 154.303 315.582 154.013C315.798 153.723 316.097 153.497 316.477 153.335C316.858 153.17 317.294 153.088 317.786 153.088C318.493 153.088 319.05 153.241 319.456 153.548C319.862 153.852 320.131 154.26 320.261 154.771ZM326.871 159.864C326.456 159.864 326.081 159.787 325.746 159.634C325.411 159.477 325.145 159.251 324.949 158.956C324.756 158.661 324.659 158.298 324.659 157.869C324.659 157.5 324.73 157.196 324.872 156.957C325.014 156.719 325.206 156.53 325.447 156.391C325.689 156.251 325.959 156.146 326.257 156.075C326.555 156.004 326.859 155.95 327.169 155.913C327.561 155.868 327.879 155.831 328.124 155.803C328.368 155.771 328.545 155.722 328.656 155.653C328.767 155.585 328.822 155.474 328.822 155.321V155.291C328.822 154.919 328.717 154.631 328.507 154.426C328.3 154.222 327.99 154.119 327.578 154.119C327.149 154.119 326.811 154.214 326.564 154.405C326.32 154.592 326.151 154.801 326.057 155.031L324.859 154.759C325.001 154.361 325.209 154.04 325.482 153.795C325.757 153.548 326.074 153.369 326.432 153.259C326.79 153.145 327.166 153.088 327.561 153.088C327.822 153.088 328.099 153.119 328.392 153.182C328.688 153.241 328.963 153.352 329.219 153.514C329.477 153.676 329.689 153.908 329.854 154.209C330.018 154.507 330.101 154.895 330.101 155.372V159.719H328.857V158.824H328.805C328.723 158.989 328.599 159.151 328.435 159.31C328.27 159.469 328.058 159.601 327.8 159.706C327.541 159.811 327.232 159.864 326.871 159.864ZM327.148 158.841C327.5 158.841 327.801 158.771 328.051 158.632C328.304 158.493 328.496 158.311 328.626 158.087C328.76 157.859 328.827 157.616 328.827 157.358V156.514C328.781 156.56 328.693 156.602 328.562 156.642C328.435 156.679 328.288 156.712 328.124 156.74C327.959 156.766 327.798 156.79 327.642 156.812C327.486 156.832 327.355 156.849 327.25 156.864C327.003 156.895 326.777 156.947 326.572 157.021C326.371 157.095 326.209 157.202 326.087 157.341C325.967 157.477 325.908 157.659 325.908 157.886C325.908 158.202 326.024 158.44 326.257 158.602C326.49 158.761 326.787 158.841 327.148 158.841ZM334.542 162.31C334.022 162.31 333.575 162.241 333.2 162.105C332.828 161.969 332.524 161.788 332.288 161.564C332.052 161.339 331.876 161.094 331.76 160.827L332.855 160.375C332.931 160.5 333.034 160.632 333.162 160.771C333.292 160.913 333.468 161.034 333.69 161.134C333.914 161.233 334.203 161.283 334.555 161.283C335.038 161.283 335.437 161.165 335.752 160.929C336.068 160.696 336.225 160.324 336.225 159.812V158.526H336.145C336.068 158.665 335.957 158.82 335.812 158.99C335.67 159.161 335.474 159.308 335.224 159.433C334.974 159.558 334.649 159.621 334.248 159.621C333.731 159.621 333.265 159.5 332.85 159.259C332.439 159.014 332.112 158.655 331.87 158.18C331.632 157.703 331.512 157.116 331.512 156.42C331.512 155.724 331.63 155.128 331.866 154.631C332.105 154.134 332.431 153.753 332.846 153.489C333.261 153.222 333.731 153.088 334.257 153.088C334.663 153.088 334.991 153.156 335.241 153.293C335.491 153.426 335.686 153.582 335.825 153.761C335.967 153.94 336.076 154.098 336.153 154.234H336.247V153.173H337.495V159.864C337.495 160.426 337.365 160.888 337.103 161.249C336.842 161.609 336.488 161.876 336.042 162.05C335.599 162.223 335.099 162.31 334.542 162.31ZM334.529 158.564C334.896 158.564 335.206 158.479 335.458 158.308C335.714 158.135 335.907 157.888 336.038 157.567C336.172 157.243 336.238 156.855 336.238 156.403C336.238 155.963 336.173 155.575 336.042 155.24C335.912 154.905 335.72 154.643 335.467 154.456C335.214 154.266 334.902 154.17 334.529 154.17C334.146 154.17 333.826 154.27 333.571 154.469C333.315 154.665 333.122 154.932 332.991 155.27C332.863 155.608 332.799 155.986 332.799 156.403C332.799 156.832 332.865 157.209 332.995 157.533C333.126 157.857 333.319 158.109 333.575 158.291C333.833 158.473 334.152 158.564 334.529 158.564ZM341.961 159.851C341.348 159.851 340.812 159.71 340.355 159.429C339.897 159.148 339.542 158.754 339.289 158.249C339.037 157.743 338.91 157.152 338.91 156.476C338.91 155.797 339.037 155.203 339.289 154.695C339.542 154.186 339.897 153.791 340.355 153.51C340.812 153.229 341.348 153.088 341.961 153.088C342.575 153.088 343.11 153.229 343.568 153.51C344.025 153.791 344.38 154.186 344.633 154.695C344.886 155.203 345.012 155.797 345.012 156.476C345.012 157.152 344.886 157.743 344.633 158.249C344.38 158.754 344.025 159.148 343.568 159.429C343.11 159.71 342.575 159.851 341.961 159.851ZM341.966 158.781C342.363 158.781 342.693 158.676 342.954 158.466C343.216 158.256 343.409 157.976 343.534 157.626C343.662 157.277 343.725 156.892 343.725 156.472C343.725 156.054 343.662 155.67 343.534 155.321C343.409 154.969 343.216 154.686 342.954 154.473C342.693 154.26 342.363 154.153 341.966 154.153C341.565 154.153 341.233 154.26 340.968 154.473C340.707 154.686 340.512 154.969 340.385 155.321C340.26 155.67 340.197 156.054 340.197 156.472C340.197 156.892 340.26 157.277 340.385 157.626C340.512 157.976 340.707 158.256 340.968 158.466C341.233 158.676 341.565 158.781 341.966 158.781Z" fill="white"/>
<rect x="26.7148" y="174.219" width="277" height="13" rx="6.5" fill="url(#paint5_linear_976_31399)"/>
<rect x="10.9976" y="137.498" width="335.005" height="59.4369" rx="5.50237" stroke="url(#paint6_diamond_976_31399)" stroke-width="0.995255"/>
</g>
<g opacity="0.44">
<rect x="10.9976" y="206.927" width="335.005" height="59.4369" rx="5.50237" fill="url(#paint7_linear_976_31399)"/>
<g clip-path="url(#clip1_976_31399)">
<path d="M31.8802 221.484C31.6592 221.484 31.4472 221.572 31.291 221.728C31.1347 221.885 31.0469 222.097 31.0469 222.318C31.0469 222.539 31.1347 222.751 31.291 222.907C31.4472 223.063 31.6592 223.151 31.8802 223.151C32.1012 223.151 32.3132 223.063 32.4695 222.907C32.6257 222.751 32.7135 222.539 32.7135 222.318C32.7135 222.097 32.6257 221.885 32.4695 221.728C32.3132 221.572 32.1012 221.484 31.8802 221.484Z" fill="white"/>
<path fill-rule="evenodd" clip-rule="evenodd" d="M28.3828 217.812C28.1176 217.812 27.8632 217.918 27.6757 218.105C27.4882 218.293 27.3828 218.547 27.3828 218.812V224.439C27.3828 224.704 27.4881 224.958 27.6761 225.146L34.5095 231.979C34.697 232.166 34.9511 232.272 35.2161 232.272C35.4811 232.272 35.7353 232.166 35.9228 231.979L41.5495 226.352C41.7367 226.165 41.8419 225.911 41.8419 225.646C41.8419 225.381 41.7367 225.127 41.5495 224.939L34.7161 218.106C34.5288 217.918 34.2746 217.813 34.0095 217.812H28.3828ZM28.3828 218.812H34.0095L40.8428 225.646L35.2161 231.272L28.3828 224.439V218.812Z" fill="white"/>
</g>
<path d="M54.3943 223.012L51.6251 230.648H50.0342L47.26 223.012H48.8559L50.7899 228.888H50.8694L52.7984 223.012H54.3943ZM59.6343 220.467V230.648H58.0931V222.008H58.0335L55.5974 223.599V222.127L58.1379 220.467H59.6343ZM62.8 230.743C62.5282 230.743 62.2945 230.647 62.099 230.455C61.9034 230.259 61.8057 230.024 61.8057 229.749C61.8057 229.477 61.9034 229.245 62.099 229.053C62.2945 228.857 62.5282 228.759 62.8 228.759C63.0718 228.759 63.3054 228.857 63.501 229.053C63.6965 229.245 63.7943 229.477 63.7943 229.749C63.7943 229.931 63.7479 230.098 63.6551 230.251C63.5656 230.4 63.4463 230.519 63.2971 230.609C63.148 230.698 62.9823 230.743 62.8 230.743ZM68.9623 230.788C68.3392 230.788 67.779 230.668 67.2819 230.43C66.788 230.188 66.3936 229.856 66.0986 229.435C65.8037 229.014 65.6462 228.534 65.6263 227.994H67.1178C67.1543 228.431 67.3482 228.791 67.6995 229.072C68.0508 229.354 68.4717 229.495 68.9623 229.495C69.3534 229.495 69.6997 229.406 70.0013 229.227C70.3063 229.044 70.5449 228.794 70.7172 228.476C70.8929 228.158 70.9807 227.795 70.9807 227.387C70.9807 226.973 70.8912 226.603 70.7123 226.278C70.5333 225.954 70.2864 225.698 69.9715 225.513C69.6599 225.327 69.302 225.233 68.8976 225.229C68.5894 225.229 68.2795 225.282 67.968 225.388C67.6564 225.495 67.4045 225.634 67.2123 225.806L65.8053 225.597L66.377 220.467H71.9751V221.784H67.6547L67.3316 224.633H67.3912C67.5901 224.441 67.8536 224.28 68.1817 224.151C68.5132 224.021 68.8678 223.957 69.2456 223.957C69.8654 223.957 70.4173 224.104 70.9012 224.399C71.3884 224.694 71.7712 225.097 72.0496 225.607C72.3314 226.114 72.4706 226.698 72.4672 227.357C72.4706 228.017 72.3214 228.605 72.0198 229.122C71.7215 229.639 71.3072 230.047 70.7769 230.345C70.2499 230.64 69.645 230.788 68.9623 230.788ZM74.9133 230.743C74.6415 230.743 74.4078 230.647 74.2123 230.455C74.0167 230.259 73.9189 230.024 73.9189 229.749C73.9189 229.477 74.0167 229.245 74.2123 229.053C74.4078 228.857 74.6415 228.759 74.9133 228.759C75.185 228.759 75.4187 228.857 75.6143 229.053C75.8098 229.245 75.9076 229.477 75.9076 229.749C75.9076 229.931 75.8612 230.098 75.7684 230.251C75.6789 230.4 75.5596 230.519 75.4104 230.609C75.2613 230.698 75.0956 230.743 74.9133 230.743ZM81.0544 230.817C80.2689 230.814 79.5977 230.607 79.0409 230.196C78.4841 229.785 78.0582 229.187 77.7632 228.401C77.4682 227.616 77.3208 226.67 77.3208 225.562C77.3208 224.459 77.4682 223.516 77.7632 222.734C78.0615 221.951 78.4891 221.355 79.0459 220.944C79.606 220.533 80.2755 220.327 81.0544 220.327C81.8333 220.327 82.5012 220.535 83.058 220.949C83.6148 221.36 84.0407 221.956 84.3357 222.739C84.634 223.518 84.7831 224.459 84.7831 225.562C84.7831 226.673 84.6356 227.621 84.3406 228.406C84.0457 229.188 83.6198 229.787 83.0629 230.201C82.5061 230.612 81.8366 230.817 81.0544 230.817ZM81.0544 229.49C81.7438 229.49 82.2824 229.154 82.6702 228.481C83.0613 227.808 83.2568 226.835 83.2568 225.562C83.2568 224.717 83.1673 224.003 82.9884 223.42C82.8127 222.833 82.5592 222.389 82.2277 222.087C81.8996 221.782 81.5085 221.63 81.0544 221.63C80.3683 221.63 79.8298 221.968 79.4387 222.644C79.0476 223.32 78.8503 224.293 78.847 225.562C78.847 226.411 78.9349 227.129 79.1105 227.715C79.2895 228.299 79.5431 228.741 79.8712 229.043C80.1993 229.341 80.5937 229.49 81.0544 229.49Z" fill="white"/>
<path d="M290.377 231.603C290.186 231.603 290.013 231.587 289.857 231.556C289.701 231.528 289.584 231.496 289.507 231.462L289.814 230.418C290.047 230.481 290.255 230.508 290.436 230.499C290.618 230.491 290.779 230.423 290.918 230.295C291.06 230.167 291.185 229.958 291.293 229.668L291.451 229.234L289.056 222.603H290.419L292.077 227.683H292.145L293.803 222.603H295.171L292.473 230.022C292.348 230.363 292.189 230.651 291.996 230.887C291.803 231.126 291.573 231.305 291.306 231.424C291.039 231.543 290.729 231.603 290.377 231.603ZM298.967 229.281C298.322 229.281 297.766 229.143 297.3 228.867C296.837 228.589 296.479 228.198 296.227 227.695C295.977 227.19 295.852 226.597 295.852 225.918C295.852 225.248 295.977 224.657 296.227 224.146C296.479 223.634 296.832 223.235 297.283 222.948C297.738 222.661 298.269 222.518 298.877 222.518C299.246 222.518 299.604 222.579 299.951 222.701C300.298 222.823 300.609 223.015 300.884 223.276C301.16 223.538 301.377 223.877 301.536 224.295C301.695 224.71 301.775 225.214 301.775 225.808V226.259H296.572V225.305H300.526C300.526 224.969 300.458 224.673 300.322 224.414C300.185 224.153 299.994 223.947 299.746 223.796C299.502 223.646 299.215 223.57 298.886 223.57C298.528 223.57 298.215 223.658 297.948 223.835C297.684 224.008 297.479 224.235 297.335 224.516C297.192 224.795 297.121 225.097 297.121 225.424V226.17C297.121 226.607 297.198 226.979 297.352 227.286C297.508 227.593 297.725 227.827 298.004 227.989C298.282 228.148 298.607 228.228 298.979 228.228C299.221 228.228 299.441 228.194 299.64 228.126C299.839 228.055 300.011 227.95 300.156 227.81C300.3 227.671 300.411 227.499 300.488 227.295L301.694 227.512C301.597 227.867 301.424 228.178 301.174 228.445C300.927 228.71 300.616 228.915 300.241 229.063C299.869 229.208 299.444 229.281 298.967 229.281ZM308.093 224.201L306.939 224.406C306.89 224.258 306.814 224.117 306.708 223.984C306.606 223.85 306.467 223.741 306.291 223.656C306.115 223.57 305.895 223.528 305.63 223.528C305.27 223.528 304.968 223.609 304.727 223.771C304.485 223.93 304.365 224.136 304.365 224.388C304.365 224.607 304.446 224.783 304.608 224.917C304.77 225.05 305.031 225.16 305.392 225.245L306.431 225.484C307.034 225.623 307.483 225.837 307.778 226.127C308.074 226.417 308.221 226.793 308.221 227.256C308.221 227.648 308.108 227.998 307.88 228.305C307.656 228.609 307.342 228.847 306.939 229.021C306.538 229.194 306.074 229.281 305.545 229.281C304.812 229.281 304.214 229.124 303.751 228.812C303.288 228.496 303.004 228.049 302.899 227.469L304.13 227.282C304.207 227.603 304.365 227.846 304.603 228.011C304.842 228.173 305.153 228.254 305.537 228.254C305.954 228.254 306.288 228.167 306.538 227.994C306.788 227.817 306.913 227.603 306.913 227.35C306.913 227.146 306.836 226.974 306.683 226.835C306.532 226.695 306.301 226.59 305.988 226.519L304.88 226.276C304.27 226.137 303.818 225.915 303.525 225.612C303.235 225.308 303.091 224.923 303.091 224.457C303.091 224.07 303.199 223.732 303.414 223.442C303.63 223.153 303.929 222.927 304.309 222.765C304.69 222.6 305.126 222.518 305.618 222.518C306.325 222.518 306.882 222.671 307.288 222.978C307.694 223.282 307.963 223.69 308.093 224.201ZM312.678 222.603V223.626H309.102V222.603H312.678ZM310.061 221.035H311.335V227.227C311.335 227.474 311.372 227.66 311.446 227.785C311.52 227.907 311.615 227.991 311.732 228.036C311.851 228.079 311.98 228.1 312.119 228.1C312.222 228.1 312.311 228.093 312.388 228.079C312.464 228.065 312.524 228.053 312.567 228.045L312.797 229.097C312.723 229.126 312.618 229.154 312.482 229.183C312.345 229.214 312.175 229.231 311.97 229.234C311.635 229.239 311.322 229.18 311.033 229.055C310.743 228.93 310.509 228.737 310.33 228.475C310.151 228.214 310.061 227.886 310.061 227.491V221.035ZM316.838 229.281C316.193 229.281 315.637 229.143 315.172 228.867C314.708 228.589 314.35 228.198 314.098 227.695C313.848 227.19 313.723 226.597 313.723 225.918C313.723 225.248 313.848 224.657 314.098 224.146C314.35 223.634 314.703 223.235 315.154 222.948C315.609 222.661 316.14 222.518 316.748 222.518C317.118 222.518 317.475 222.579 317.822 222.701C318.169 222.823 318.48 223.015 318.755 223.276C319.031 223.538 319.248 223.877 319.407 224.295C319.566 224.71 319.646 225.214 319.646 225.808V226.259H314.443V225.305H318.397C318.397 224.969 318.329 224.673 318.193 224.414C318.056 224.153 317.865 223.947 317.618 223.796C317.373 223.646 317.086 223.57 316.757 223.57C316.399 223.57 316.086 223.658 315.819 223.835C315.555 224.008 315.35 224.235 315.206 224.516C315.064 224.795 314.993 225.097 314.993 225.424V226.17C314.993 226.607 315.069 226.979 315.223 227.286C315.379 227.593 315.596 227.827 315.875 227.989C316.153 228.148 316.478 228.228 316.85 228.228C317.092 228.228 317.312 228.194 317.511 228.126C317.71 228.055 317.882 227.95 318.027 227.81C318.172 227.671 318.282 227.499 318.359 227.295L319.565 227.512C319.468 227.867 319.295 228.178 319.045 228.445C318.798 228.71 318.487 228.915 318.112 229.063C317.74 229.208 317.315 229.281 316.838 229.281ZM321.06 229.148V222.603H322.291V223.643H322.359C322.479 223.29 322.689 223.013 322.99 222.812C323.294 222.607 323.638 222.505 324.021 222.505C324.101 222.505 324.195 222.508 324.303 222.513C324.413 222.519 324.5 222.526 324.562 222.535V223.754C324.511 223.739 324.42 223.724 324.29 223.707C324.159 223.687 324.028 223.677 323.898 223.677C323.597 223.677 323.328 223.741 323.092 223.869C322.859 223.994 322.675 224.168 322.538 224.393C322.402 224.614 322.334 224.867 322.334 225.151V229.148H321.06ZM327.881 229.276C327.353 229.276 326.881 229.141 326.466 228.871C326.054 228.599 325.73 228.211 325.495 227.708C325.262 227.202 325.145 226.596 325.145 225.888C325.145 225.181 325.263 224.576 325.499 224.073C325.738 223.57 326.064 223.185 326.479 222.918C326.894 222.651 327.364 222.518 327.89 222.518C328.296 222.518 328.623 222.586 328.87 222.722C329.12 222.856 329.313 223.012 329.449 223.191C329.588 223.37 329.696 223.528 329.773 223.664H329.85V220.421H331.124V229.148H329.88V228.13H329.773C329.696 228.269 329.586 228.428 329.441 228.607C329.299 228.786 329.103 228.942 328.853 229.076C328.603 229.21 328.279 229.276 327.881 229.276ZM328.162 228.19C328.529 228.19 328.838 228.093 329.091 227.9C329.347 227.704 329.54 227.433 329.671 227.086C329.804 226.739 329.871 226.336 329.871 225.876C329.871 225.421 329.806 225.023 329.675 224.683C329.544 224.342 329.353 224.076 329.1 223.886C328.847 223.695 328.534 223.6 328.162 223.6C327.779 223.6 327.459 223.7 327.203 223.898C326.948 224.097 326.755 224.369 326.624 224.712C326.496 225.056 326.432 225.444 326.432 225.876C326.432 226.313 326.498 226.707 326.628 227.056C326.759 227.406 326.952 227.683 327.208 227.887C327.466 228.089 327.784 228.19 328.162 228.19ZM334.847 229.293C334.433 229.293 334.058 229.217 333.722 229.063C333.387 228.907 333.121 228.681 332.925 228.386C332.732 228.09 332.636 227.728 332.636 227.299C332.636 226.93 332.707 226.626 332.849 226.387C332.991 226.148 333.183 225.96 333.424 225.82C333.665 225.681 333.935 225.576 334.234 225.505C334.532 225.434 334.836 225.38 335.146 225.343C335.538 225.298 335.856 225.261 336.1 225.232C336.344 225.201 336.522 225.151 336.633 225.083C336.744 225.015 336.799 224.904 336.799 224.751V224.721C336.799 224.349 336.694 224.06 336.484 223.856C336.276 223.651 335.967 223.549 335.555 223.549C335.126 223.549 334.788 223.644 334.54 223.835C334.296 224.022 334.127 224.231 334.033 224.461L332.836 224.188C332.978 223.79 333.185 223.469 333.458 223.225C333.734 222.978 334.05 222.799 334.408 222.688C334.766 222.575 335.143 222.518 335.538 222.518C335.799 222.518 336.076 222.549 336.369 222.612C336.664 222.671 336.94 222.782 337.195 222.944C337.454 223.106 337.665 223.337 337.83 223.638C337.995 223.937 338.077 224.325 338.077 224.802V229.148H336.833V228.254H336.782C336.7 228.418 336.576 228.58 336.411 228.739C336.246 228.898 336.035 229.031 335.776 229.136C335.518 229.241 335.208 229.293 334.847 229.293ZM335.124 228.271C335.477 228.271 335.778 228.201 336.028 228.062C336.281 227.923 336.472 227.741 336.603 227.516C336.737 227.289 336.803 227.046 336.803 226.788V225.944C336.758 225.989 336.67 226.032 336.539 226.072C336.411 226.109 336.265 226.141 336.1 226.17C335.935 226.195 335.775 226.219 335.619 226.242C335.462 226.262 335.332 226.279 335.227 226.293C334.979 226.325 334.754 226.377 334.549 226.451C334.347 226.525 334.185 226.631 334.063 226.771C333.944 226.907 333.884 227.089 333.884 227.316C333.884 227.631 334.001 227.87 334.234 228.032C334.467 228.191 334.763 228.271 335.124 228.271ZM340.346 231.603C340.155 231.603 339.982 231.587 339.826 231.556C339.669 231.528 339.553 231.496 339.476 231.462L339.783 230.418C340.016 230.481 340.223 230.508 340.405 230.499C340.587 230.491 340.748 230.423 340.887 230.295C341.029 230.167 341.154 229.958 341.262 229.668L341.419 229.234L339.025 222.603H340.388L342.046 227.683H342.114L343.772 222.603H345.14L342.442 230.022C342.317 230.363 342.158 230.651 341.965 230.887C341.772 231.126 341.542 231.305 341.275 231.424C341.007 231.543 340.698 231.603 340.346 231.603Z" fill="white"/>
<rect x="26.7148" y="243.648" width="277" height="13" rx="6.5" fill="url(#paint8_linear_976_31399)"/>
<rect x="10.9976" y="206.927" width="335.005" height="59.4369" rx="5.50237" stroke="url(#paint9_diamond_976_31399)" stroke-width="0.995255"/>
</g>
<path d="M0.667969 12.9297C0.667969 6.30228 6.04055 0.929688 12.668 0.929688H346.668V258.93H0.667969V12.9297Z" fill="url(#paint10_linear_976_31399)"/>
<path d="M0.997628 13C0.997628 6.64742 6.14742 1.49763 12.5 1.49763H346.002V258.502H0.997628V13Z" stroke="url(#paint11_diamond_976_31399)" stroke-width="0.995255"/>
<defs>
<linearGradient id="paint0_linear_976_31399" x1="36.1176" y1="23.7647" x2="253.994" y2="335.116" gradientUnits="userSpaceOnUse">
<stop stop-color="white" stop-opacity="0.08"/>
<stop offset="0.989583" stop-color="white" stop-opacity="0"/>
</linearGradient>
<linearGradient id="paint1_linear_976_31399" x1="45.0882" y1="73.2941" x2="62.6706" y2="178.212" gradientUnits="userSpaceOnUse">
<stop stop-color="white" stop-opacity="0.08"/>
<stop offset="0.989583" stop-color="white" stop-opacity="0"/>
</linearGradient>
<linearGradient id="paint2_linear_976_31399" x1="36.6444" y1="111.498" x2="324.592" y2="111.498" gradientUnits="userSpaceOnUse">
<stop stop-color="#71717A"/>
<stop offset="1" stop-color="#71717A" stop-opacity="0"/>
</linearGradient>
<radialGradient id="paint3_diamond_976_31399" cx="0" cy="0" r="1" gradientUnits="userSpaceOnUse" gradientTransform="translate(10.5 70.9859) rotate(25.3275) scale(133.252 376.741)">
<stop stop-color="#3F3F46"/>
<stop offset="1" stop-color="#3F3F46" stop-opacity="0"/>
</radialGradient>
<linearGradient id="paint4_linear_976_31399" x1="45.0882" y1="142.332" x2="62.9178" y2="247.964" gradientUnits="userSpaceOnUse">
<stop stop-color="white" stop-opacity="0.08"/>
<stop offset="0.989583" stop-color="white" stop-opacity="0"/>
</linearGradient>
<linearGradient id="paint5_linear_976_31399" x1="36.8592" y1="180.716" x2="324.807" y2="180.716" gradientUnits="userSpaceOnUse">
<stop stop-color="#71717A"/>
<stop offset="1" stop-color="#71717A" stop-opacity="0"/>
</linearGradient>
<radialGradient id="paint6_diamond_976_31399" cx="0" cy="0" r="1" gradientUnits="userSpaceOnUse" gradientTransform="translate(10.5 140.007) rotate(25.4869) scale(133.428 378.954)">
<stop stop-color="#3F3F46"/>
<stop offset="1" stop-color="#3F3F46" stop-opacity="0"/>
</radialGradient>
<linearGradient id="paint7_linear_976_31399" x1="45.0882" y1="211.762" x2="62.9178" y2="317.394" gradientUnits="userSpaceOnUse">
<stop stop-color="white" stop-opacity="0.08"/>
<stop offset="0.989583" stop-color="white" stop-opacity="0"/>
</linearGradient>
<linearGradient id="paint8_linear_976_31399" x1="36.8592" y1="250.146" x2="324.807" y2="250.146" gradientUnits="userSpaceOnUse">
<stop stop-color="#71717A"/>
<stop offset="1" stop-color="#71717A" stop-opacity="0"/>
</linearGradient>
<radialGradient id="paint9_diamond_976_31399" cx="0" cy="0" r="1" gradientUnits="userSpaceOnUse" gradientTransform="translate(10.5 209.437) rotate(25.4869) scale(133.428 378.954)">
<stop stop-color="#3F3F46"/>
<stop offset="1" stop-color="#3F3F46" stop-opacity="0"/>
</radialGradient>
<linearGradient id="paint10_linear_976_31399" x1="313.588" y1="239.084" x2="22.1862" y2="119.899" gradientUnits="userSpaceOnUse">
<stop stop-color="#18181B"/>
<stop offset="1" stop-color="#18181B" stop-opacity="0.34"/>
</linearGradient>
<radialGradient id="paint11_diamond_976_31399" cx="0" cy="0" r="1" gradientUnits="userSpaceOnUse" gradientTransform="translate(0.5 13.8395) rotate(63.1609) scale(274.709 809.184)">
<stop stop-color="#3F3F46"/>
<stop offset="1" stop-color="#3F3F46" stop-opacity="0"/>
</radialGradient>
<clipPath id="clip0_976_31399">
<rect width="16" height="16" fill="white" transform="translate(26.7148 147.719)"/>
</clipPath>
<clipPath id="clip1_976_31399">
<rect width="16" height="16" fill="white" transform="translate(26.7148 217.148)"/>
</clipPath>
</defs>
</svg>
