<svg width="24" height="24" viewBox="0 0 24 24" fill="none" xmlns="http://www.w3.org/2000/svg">
<g clip-path="url(#clip0_949_27122)">
<path d="M0.408635 15.1271C0.15793 14.6929 0.0794382 14.1804 0.188709 13.6911C0.297979 13.2018 0.587041 12.7714 0.998635 12.4851L17.0386 1.32709C17.2626 1.17118 17.5161 1.06279 17.7836 1.00858C18.0511 0.954375 18.3268 0.955507 18.5938 1.01191C18.8608 1.06831 19.1134 1.17878 19.3361 1.33652C19.5588 1.49425 19.7468 1.69592 19.8886 1.92909L22.7166 6.57309C22.8623 6.81237 22.9561 7.07958 22.9919 7.35742C23.0277 7.63526 23.0048 7.91752 22.9246 8.18592C22.8443 8.45433 22.7086 8.70288 22.5262 8.91549C22.3438 9.12809 22.1187 9.3 21.8656 9.42009L4.10363 17.8501C3.64951 18.0657 3.13085 18.1024 2.6509 17.9528C2.17095 17.8033 1.76492 17.4785 1.51363 17.0431L0.408635 15.1271ZM5.67163 11.0611L7.65863 14.5011L16.3706 10.3661L13.5136 5.60609L5.67163 11.0611ZM17.7316 9.72109L17.7326 9.72009L21.2226 8.06409C21.2861 8.03424 21.3425 7.99133 21.3883 7.93816C21.434 7.88499 21.468 7.82276 21.488 7.75554C21.508 7.68832 21.5136 7.61764 21.5044 7.54811C21.4952 7.47858 21.4714 7.41179 21.4346 7.35209L18.6086 2.70809C18.5729 2.65004 18.5257 2.59987 18.47 2.56061C18.4143 2.52135 18.3512 2.49382 18.2845 2.4797C18.2178 2.46558 18.149 2.46516 18.0821 2.47846C18.0153 2.49176 17.9518 2.51851 17.8956 2.55709L14.7476 4.74709L17.7316 9.72109ZM4.43663 11.9211L1.85463 13.7171C1.75195 13.7887 1.67987 13.8963 1.65265 14.0185C1.62544 14.1407 1.64506 14.2686 1.70763 14.3771L2.81263 16.2921C2.87559 16.4009 2.97723 16.4821 3.09733 16.5193C3.21742 16.5566 3.34714 16.5472 3.46063 16.4931L6.29863 15.1461L4.43663 11.9211ZM17.1556 22.8671C17.3229 22.7596 17.4407 22.5901 17.4831 22.3959C17.5255 22.2016 17.489 21.9985 17.3816 21.8311L13.3816 15.5921C13.2843 15.4404 13.1357 15.3289 12.9629 15.2779C12.7901 15.2268 12.6047 15.2397 12.4406 15.3141L9.69063 16.5641C9.56072 16.6233 9.45039 16.7183 9.37263 16.8381L6.12263 21.8271C6.02048 21.9936 5.98732 22.1934 6.0302 22.3839C6.07308 22.5745 6.18862 22.7408 6.35225 22.8475C6.51588 22.9542 6.71467 22.9929 6.90636 22.9553C7.09804 22.9176 7.26748 22.8067 7.37863 22.6461L10.5096 17.8401L11.0196 17.6081V23.2481C11.0196 23.447 11.0987 23.6378 11.2393 23.7784C11.38 23.9191 11.5707 23.9981 11.7696 23.9981C11.9685 23.9981 12.1593 23.9191 12.3 23.7784C12.4406 23.6378 12.5196 23.447 12.5196 23.2481V17.0281L16.1196 22.6411C16.2271 22.8084 16.3966 22.9262 16.5908 22.9686C16.7851 23.0109 16.9883 22.9744 17.1556 22.8671Z" fill="#F9A8D4" fill-opacity="0.75"/>
<path d="M0.408635 15.1271C0.15793 14.6929 0.0794382 14.1804 0.188709 13.6911C0.297979 13.2018 0.587041 12.7714 0.998635 12.4851L17.0386 1.32709C17.2626 1.17118 17.5161 1.06279 17.7836 1.00858C18.0511 0.954375 18.3268 0.955507 18.5938 1.01191C18.8608 1.06831 19.1134 1.17878 19.3361 1.33652C19.5588 1.49425 19.7468 1.69592 19.8886 1.92909L22.7166 6.57309C22.8623 6.81237 22.9561 7.07958 22.9919 7.35742C23.0277 7.63526 23.0048 7.91752 22.9246 8.18592C22.8443 8.45433 22.7086 8.70288 22.5262 8.91549C22.3438 9.12809 22.1187 9.3 21.8656 9.42009L4.10363 17.8501C3.64951 18.0657 3.13085 18.1024 2.6509 17.9528C2.17095 17.8033 1.76492 17.4785 1.51363 17.0431L0.408635 15.1271ZM5.67163 11.0611L7.65863 14.5011L16.3706 10.3661L13.5136 5.60609L5.67163 11.0611ZM17.7316 9.72109L17.7326 9.72009L21.2226 8.06409C21.2861 8.03424 21.3425 7.99133 21.3883 7.93816C21.434 7.88499 21.468 7.82276 21.488 7.75554C21.508 7.68832 21.5136 7.61764 21.5044 7.54811C21.4952 7.47858 21.4714 7.41179 21.4346 7.35209L18.6086 2.70809C18.5729 2.65004 18.5257 2.59987 18.47 2.56061C18.4143 2.52135 18.3512 2.49382 18.2845 2.4797C18.2178 2.46558 18.149 2.46516 18.0821 2.47846C18.0153 2.49176 17.9518 2.51851 17.8956 2.55709L14.7476 4.74709L17.7316 9.72109ZM4.43663 11.9211L1.85463 13.7171C1.75195 13.7887 1.67987 13.8963 1.65265 14.0185C1.62544 14.1407 1.64506 14.2686 1.70763 14.3771L2.81263 16.2921C2.87559 16.4009 2.97723 16.4821 3.09733 16.5193C3.21742 16.5566 3.34714 16.5472 3.46063 16.4931L6.29863 15.1461L4.43663 11.9211ZM17.1556 22.8671C17.3229 22.7596 17.4407 22.5901 17.4831 22.3959C17.5255 22.2016 17.489 21.9985 17.3816 21.8311L13.3816 15.5921C13.2843 15.4404 13.1357 15.3289 12.9629 15.2779C12.7901 15.2268 12.6047 15.2397 12.4406 15.3141L9.69063 16.5641C9.56072 16.6233 9.45039 16.7183 9.37263 16.8381L6.12263 21.8271C6.02048 21.9936 5.98732 22.1934 6.0302 22.3839C6.07308 22.5745 6.18862 22.7408 6.35225 22.8475C6.51588 22.9542 6.71467 22.9929 6.90636 22.9553C7.09804 22.9176 7.26748 22.8067 7.37863 22.6461L10.5096 17.8401L11.0196 17.6081V23.2481C11.0196 23.447 11.0987 23.6378 11.2393 23.7784C11.38 23.9191 11.5707 23.9981 11.7696 23.9981C11.9685 23.9981 12.1593 23.9191 12.3 23.7784C12.4406 23.6378 12.5196 23.447 12.5196 23.2481V17.0281L16.1196 22.6411C16.2271 22.8084 16.3966 22.9262 16.5908 22.9686C16.7851 23.0109 16.9883 22.9744 17.1556 22.8671Z" fill="url(#paint0_linear_949_27122)"/>
</g>
<defs>
<linearGradient id="paint0_linear_949_27122" x1="11.5745" y1="0.96875" x2="12.2187" y2="28.6457" gradientUnits="userSpaceOnUse">
<stop stop-color="white"/>
<stop offset="1" stop-color="white" stop-opacity="0"/>
</linearGradient>
<clipPath id="clip0_949_27122">
<rect width="24" height="24" fill="white"/>
</clipPath>
</defs>
</svg>
